<?xml version="1.0" encoding="UTF-8"?>
<svg width="282px" height="129px" viewBox="0 0 282 129" version="1.1" xmlns="http://www.w3.org/2000/svg" xmlns:xlink="http://www.w3.org/1999/xlink">
    <!-- Generator: Sketch 61.2 (89653) - https://sketch.com -->
    <title>Proj_Example_Step_1</title>
    <desc>Created with Sketch.</desc>
    <g id="Proj_Example_Step_1" stroke="none" stroke-width="1" fill="none" fill-rule="evenodd">
        <g id="Group" transform="translate(83.000000, 38.000000)">
            <rect id="Rectangle" fill="#D8D8D8" x="0" y="0" width="118" height="14"></rect>
            <path d="M6.56835938,10.1025391 C7.15429688,10.1025391 7.62548828,9.96663411 7.98193359,9.69482422 C8.33837891,9.42301432 8.51660156,9.06738281 8.51660156,8.62792969 C8.51660156,8.21126302 8.36035156,7.88167318 8.04785156,7.63916016 C7.73535156,7.39664714 7.26497396,7.20540365 6.63671875,7.06542969 C6.08658854,6.94498698 5.7195638,6.80501302 5.53564453,6.64550781 C5.35172526,6.4860026 5.25976562,6.28417969 5.25976562,6.04003906 C5.25976562,5.79264323 5.3663737,5.57698568 5.57958984,5.39306641 C5.79280599,5.20914714 6.11263021,5.1171875 6.5390625,5.1171875 C6.95572917,5.1171875 7.28694661,5.22460938 7.53271484,5.43945312 C7.77848307,5.65429688 7.90136719,5.90657552 7.90136719,6.19628906 L7.90136719,6.19628906 L8.44335938,6.19628906 L8.453125,6.16699219 C8.46940104,5.72428385 8.30338542,5.35563151 7.95507812,5.06103516 C7.60677083,4.7664388 7.13476562,4.61914062 6.5390625,4.61914062 C5.97916667,4.61914062 5.52913411,4.75830078 5.18896484,5.03662109 C4.84879557,5.31494141 4.67871094,5.65592448 4.67871094,6.05957031 C4.67871094,6.46972656 4.82926432,6.78710938 5.13037109,7.01171875 C5.43147786,7.23632812 5.89778646,7.41699219 6.52929688,7.55371094 C7.05989583,7.67089844 7.42692057,7.82226562 7.63037109,8.0078125 C7.83382161,8.19335938 7.93554688,8.40983073 7.93554688,8.65722656 C7.93554688,8.92089844 7.81347656,9.14550781 7.56933594,9.33105469 C7.32519531,9.51660156 6.99153646,9.609375 6.56835938,9.609375 C6.17773438,9.609375 5.83837891,9.52311198 5.55029297,9.35058594 C5.26220703,9.1780599 5.10677083,8.90136719 5.08398438,8.52050781 L5.08398438,8.52050781 L4.546875,8.52050781 L4.53710938,8.54980469 C4.51757812,8.97298177 4.69091797,9.3375651 5.05712891,9.64355469 C5.42333984,9.94954427 5.92708333,10.1025391 6.56835938,10.1025391 Z M12.0058594,10.1025391 C12.7089844,10.1025391 13.2729492,9.85432943 13.6977539,9.35791016 C14.1225586,8.86149089 14.3349609,8.22265625 14.3349609,7.44140625 L14.3349609,7.44140625 L14.3349609,7.28027344 C14.3349609,6.50227865 14.1217448,5.86425781 13.6953125,5.36621094 C13.2688802,4.86816406 12.702474,4.61914062 11.9960938,4.61914062 C11.2929688,4.61914062 10.7281901,4.86816406 10.3017578,5.36621094 C9.87532552,5.86425781 9.66210938,6.50227865 9.66210938,7.28027344 L9.66210938,7.28027344 L9.66210938,7.44140625 C9.66210938,8.22265625 9.87532552,8.86149089 10.3017578,9.35791016 C10.7281901,9.85432943 11.296224,10.1025391 12.0058594,10.1025391 Z M12.0058594,9.609375 C11.452474,9.609375 11.0211589,9.40104167 10.7119141,8.984375 C10.4026693,8.56770833 10.2480469,8.05338542 10.2480469,7.44140625 L10.2480469,7.44140625 L10.2480469,7.28027344 C10.2480469,6.6780599 10.4026693,6.16699219 10.7119141,5.74707031 C11.0211589,5.32714844 11.4492188,5.1171875 11.9960938,5.1171875 C12.5429688,5.1171875 12.9726562,5.32714844 13.2851562,5.74707031 C13.5976562,6.16699219 13.7539062,6.6780599 13.7539062,7.28027344 L13.7539062,7.28027344 L13.7539062,7.44140625 C13.7539062,8.05338542 13.5984701,8.56770833 13.2875977,8.984375 C12.9767253,9.40104167 12.5494792,9.609375 12.0058594,9.609375 Z M17.4433594,10.1025391 C17.8339844,10.1025391 18.172526,10.0187174 18.4589844,9.85107422 C18.7454427,9.68343099 18.9733073,9.44498698 19.1425781,9.13574219 L19.1425781,9.13574219 L19.1914062,10 L19.7089844,10 L19.7089844,4.71679688 L19.1230469,4.71679688 L19.1230469,8.4765625 C19.0188802,8.82486979 18.8349609,9.09830729 18.5712891,9.296875 C18.3076172,9.49544271 17.9544271,9.59472656 17.5117188,9.59472656 C17.1080729,9.59472656 16.7963867,9.4547526 16.5766602,9.17480469 C16.3569336,8.89485677 16.2470703,8.43261719 16.2470703,7.78808594 L16.2470703,7.78808594 L16.2470703,4.71679688 L15.6611328,4.71679688 L15.6611328,7.77832031 C15.6611328,8.57259115 15.8190104,9.15852865 16.1347656,9.53613281 C16.4505208,9.91373698 16.8867188,10.1025391 17.4433594,10.1025391 Z M21.9580078,10 L21.9580078,6.35253906 C22.0589193,5.99121094 22.2273763,5.70719401 22.4633789,5.50048828 C22.6993815,5.29378255 23.0013021,5.19042969 23.3691406,5.19042969 L23.3691406,5.19042969 L23.8037109,5.21972656 L23.8818359,4.67285156 C23.836263,4.65983073 23.7784831,4.6476237 23.7084961,4.63623047 C23.6385091,4.62483724 23.5660807,4.61914062 23.4912109,4.61914062 C23.1363932,4.61914062 22.8304036,4.71028646 22.5732422,4.89257812 C22.3160807,5.07486979 22.1110026,5.32877604 21.9580078,5.65429688 L21.9580078,5.65429688 L21.9580078,5.59570312 L21.8847656,4.71679688 L21.3720703,4.71679688 L21.3720703,10 L21.9580078,10 Z M26.765625,10.1025391 C27.2994792,10.1025391 27.7698568,9.93815104 28.1767578,9.609375 C28.5836589,9.28059896 28.7789714,8.87207031 28.7626953,8.38378906 L28.7626953,8.38378906 L28.7529297,8.35449219 L28.2353516,8.35449219 C28.2353516,8.7483724 28.0872396,9.05598958 27.7910156,9.27734375 C27.4947917,9.49869792 27.1529948,9.609375 26.765625,9.609375 C26.1927083,9.609375 25.7711589,9.40755208 25.5009766,9.00390625 C25.2307943,8.60026042 25.0957031,8.0859375 25.0957031,7.4609375 L25.0957031,7.4609375 L25.0957031,7.25585938 C25.0957031,6.640625 25.2316081,6.13037109 25.503418,5.72509766 C25.7752279,5.31982422 26.1943359,5.1171875 26.7607422,5.1171875 C27.1741536,5.1171875 27.5232747,5.24332682 27.8081055,5.49560547 C28.0929362,5.74788411 28.2353516,6.08561198 28.2353516,6.50878906 L28.2353516,6.50878906 L28.7578125,6.50878906 L28.7675781,6.47949219 C28.780599,5.92285156 28.5942383,5.47363281 28.2084961,5.13183594 C27.8227539,4.79003906 27.3401693,4.61914062 26.7607422,4.61914062 C26.0478516,4.61914062 25.4944661,4.86653646 25.1005859,5.36132812 C24.7067057,5.85611979 24.5097656,6.48763021 24.5097656,7.25585938 L24.5097656,7.25585938 L24.5097656,7.4609375 C24.5097656,8.23567708 24.7058919,8.86962891 25.0981445,9.36279297 C25.4903971,9.85595703 26.046224,10.1025391 26.765625,10.1025391 Z M32.0957031,10.1025391 C32.515625,10.1025391 32.8777669,10.0415039 33.1821289,9.91943359 C33.4864909,9.79736328 33.7379557,9.63216146 33.9365234,9.42382812 L33.9365234,9.42382812 L33.6875,9.0234375 C33.5052083,9.21223958 33.2854818,9.35709635 33.0283203,9.45800781 C32.7711589,9.55891927 32.4602865,9.609375 32.0957031,9.609375 C31.5813802,9.609375 31.1663411,9.40917969 30.8505859,9.00878906 C30.5348307,8.60839844 30.3769531,8.11035156 30.3769531,7.51464844 L30.3769531,7.51464844 L30.3769531,7.37304688 L34.1074219,7.37304688 L34.1074219,6.875 C34.1074219,6.19140625 33.921875,5.64453125 33.5507812,5.234375 C33.1796875,4.82421875 32.6702474,4.61914062 32.0224609,4.61914062 C31.4039714,4.61914062 30.8774414,4.86816406 30.4428711,5.36621094 C30.0083008,5.86425781 29.7910156,6.49088542 29.7910156,7.24609375 L29.7910156,7.24609375 L29.7910156,7.51464844 C29.7910156,8.26334635 30.0099284,8.88183594 30.4477539,9.37011719 C30.8855794,9.85839844 31.4348958,10.1025391 32.0957031,10.1025391 Z M33.5263672,6.87988281 L30.4306641,6.87988281 L30.4208984,6.85546875 C30.4697266,6.35742188 30.640625,5.94319661 30.9335938,5.61279297 C31.2265625,5.28238932 31.5895182,5.1171875 32.0224609,5.1171875 C32.4847005,5.1171875 32.8509115,5.2718099 33.1210938,5.58105469 C33.391276,5.89029948 33.5263672,6.27441406 33.5263672,6.73339844 L33.5263672,6.73339844 L33.5263672,6.87988281 Z M35.296875,10.6103516 L38.2607422,2.890625 L37.7333984,2.890625 L34.7646484,10.6103516 L35.296875,10.6103516 Z" id="source/" fill="#000000" fill-rule="nonzero"></path>
        </g>
        <g id="Group" transform="translate(83.000000, 56.000000)">
            <rect id="Rectangle" fill="#D8D8D8" x="0" y="0" width="118" height="14"></rect>
            <path d="M5.78222656,10 L5.78222656,5.1953125 L7.04199219,5.1953125 L7.04199219,4.71679688 L5.78222656,4.71679688 L5.78222656,3.9453125 C5.78222656,3.58072917 5.86686198,3.29752604 6.03613281,3.09570312 C6.20540365,2.89388021 6.44954427,2.79296875 6.76855469,2.79296875 C6.87923177,2.79296875 6.97607422,2.79866536 7.05908203,2.81005859 C7.14208984,2.82145182 7.22265625,2.83691406 7.30078125,2.85644531 L7.30078125,2.85644531 L7.37402344,2.37304688 C7.26009115,2.34375 7.14778646,2.32096354 7.03710938,2.3046875 C6.92643229,2.28841146 6.81738281,2.28027344 6.70996094,2.28027344 C6.23144531,2.28027344 5.85953776,2.42513021 5.59423828,2.71484375 C5.3289388,3.00455729 5.19628906,3.41471354 5.19628906,3.9453125 L5.19628906,3.9453125 L5.19628906,4.71679688 L4.32226562,4.71679688 L4.32226562,5.1953125 L5.19628906,5.1953125 L5.19628906,10 L5.78222656,10 Z M10.1992188,10.1025391 C10.9023438,10.1025391 11.4663086,9.85432943 11.8911133,9.35791016 C12.315918,8.86149089 12.5283203,8.22265625 12.5283203,7.44140625 L12.5283203,7.44140625 L12.5283203,7.28027344 C12.5283203,6.50227865 12.3151042,5.86425781 11.8886719,5.36621094 C11.4622396,4.86816406 10.8958333,4.61914062 10.1894531,4.61914062 C9.48632812,4.61914062 8.92154948,4.86816406 8.49511719,5.36621094 C8.0686849,5.86425781 7.85546875,6.50227865 7.85546875,7.28027344 L7.85546875,7.28027344 L7.85546875,7.44140625 C7.85546875,8.22265625 8.0686849,8.86149089 8.49511719,9.35791016 C8.92154948,9.85432943 9.48958333,10.1025391 10.1992188,10.1025391 Z M10.1992188,9.609375 C9.64583333,9.609375 9.21451823,9.40104167 8.90527344,8.984375 C8.59602865,8.56770833 8.44140625,8.05338542 8.44140625,7.44140625 L8.44140625,7.44140625 L8.44140625,7.28027344 C8.44140625,6.6780599 8.59602865,6.16699219 8.90527344,5.74707031 C9.21451823,5.32714844 9.64257812,5.1171875 10.1894531,5.1171875 C10.7363281,5.1171875 11.1660156,5.32714844 11.4785156,5.74707031 C11.7910156,6.16699219 11.9472656,6.6780599 11.9472656,7.28027344 L11.9472656,7.28027344 L11.9472656,7.44140625 C11.9472656,8.05338542 11.7918294,8.56770833 11.480957,8.984375 C11.1700846,9.40104167 10.7428385,9.609375 10.1992188,9.609375 Z M14.5283203,10 L14.5283203,2.3828125 L13.9472656,2.3828125 L13.9472656,10 L14.5283203,10 Z M18.0566406,10.1025391 C18.4309896,10.1025391 18.7565104,10.0276693 19.0332031,9.87792969 C19.3098958,9.7281901 19.5361328,9.51334635 19.7119141,9.23339844 L19.7119141,9.23339844 L19.7607422,10 L20.2783203,10 L20.2783203,2.3828125 L19.6972656,2.3828125 L19.6972656,5.51757812 C19.5182292,5.23111979 19.2936198,5.00976562 19.0234375,4.85351562 C18.7532552,4.69726562 18.4342448,4.61914062 18.0664062,4.61914062 C17.4283854,4.61914062 16.9311523,4.87223307 16.574707,5.37841797 C16.2182617,5.88460286 16.0400391,6.55924479 16.0400391,7.40234375 L16.0400391,7.40234375 L16.0400391,7.50488281 C16.0400391,8.29589844 16.2182617,8.92659505 16.574707,9.39697266 C16.9311523,9.86735026 17.4251302,10.1025391 18.0566406,10.1025391 Z M18.1640625,9.59472656 C17.6497396,9.59472656 17.2648112,9.40592448 17.0092773,9.02832031 C16.7537435,8.65071615 16.6259766,8.14290365 16.6259766,7.50488281 L16.6259766,7.50488281 L16.6259766,7.40234375 C16.6259766,6.72851562 16.7553711,6.18082682 17.0141602,5.75927734 C17.2729492,5.33772786 17.6595052,5.12695312 18.1738281,5.12695312 C18.5677083,5.12695312 18.8867188,5.22216797 19.1308594,5.41259766 C19.375,5.60302734 19.5638021,5.85123698 19.6972656,6.15722656 L19.6972656,6.15722656 L19.6972656,8.63769531 C19.5572917,8.93717448 19.3611654,9.17154948 19.1088867,9.34082031 C18.8566081,9.51009115 18.5416667,9.59472656 18.1640625,9.59472656 Z M23.9433594,10.1025391 C24.3632812,10.1025391 24.7254232,10.0415039 25.0297852,9.91943359 C25.3341471,9.79736328 25.585612,9.63216146 25.7841797,9.42382812 L25.7841797,9.42382812 L25.5351562,9.0234375 C25.3528646,9.21223958 25.133138,9.35709635 24.8759766,9.45800781 C24.6188151,9.55891927 24.3079427,9.609375 23.9433594,9.609375 C23.4290365,9.609375 23.0139974,9.40917969 22.6982422,9.00878906 C22.382487,8.60839844 22.2246094,8.11035156 22.2246094,7.51464844 L22.2246094,7.51464844 L22.2246094,7.37304688 L25.9550781,7.37304688 L25.9550781,6.875 C25.9550781,6.19140625 25.7695312,5.64453125 25.3984375,5.234375 C25.0273438,4.82421875 24.5179036,4.61914062 23.8701172,4.61914062 C23.2516276,4.61914062 22.7250977,4.86816406 22.2905273,5.36621094 C21.855957,5.86425781 21.6386719,6.49088542 21.6386719,7.24609375 L21.6386719,7.24609375 L21.6386719,7.51464844 C21.6386719,8.26334635 21.8575846,8.88183594 22.2954102,9.37011719 C22.7332357,9.85839844 23.2825521,10.1025391 23.9433594,10.1025391 Z M25.3740234,6.87988281 L22.2783203,6.87988281 L22.2685547,6.85546875 C22.3173828,6.35742188 22.4882812,5.94319661 22.78125,5.61279297 C23.0742188,5.28238932 23.4371745,5.1171875 23.8701172,5.1171875 C24.3323568,5.1171875 24.6985677,5.2718099 24.96875,5.58105469 C25.2389323,5.89029948 25.3740234,6.27441406 25.3740234,6.73339844 L25.3740234,6.73339844 L25.3740234,6.87988281 Z M27.8232422,10 L27.8232422,6.35253906 C27.9241536,5.99121094 28.0926107,5.70719401 28.3286133,5.50048828 C28.5646159,5.29378255 28.8665365,5.19042969 29.234375,5.19042969 L29.234375,5.19042969 L29.6689453,5.21972656 L29.7470703,4.67285156 C29.7014974,4.65983073 29.6437174,4.6476237 29.5737305,4.63623047 C29.5037435,4.62483724 29.4313151,4.61914062 29.3564453,4.61914062 C29.0016276,4.61914062 28.695638,4.71028646 28.4384766,4.89257812 C28.1813151,5.07486979 27.976237,5.32877604 27.8232422,5.65429688 L27.8232422,5.65429688 L27.8232422,5.59570312 L27.75,4.71679688 L27.2373047,4.71679688 L27.2373047,10 L27.8232422,10 Z M35.5634766,10.1025391 C36.1917318,10.1025391 36.6848958,9.86735026 37.0429688,9.39697266 C37.4010417,8.92659505 37.5800781,8.29589844 37.5800781,7.50488281 L37.5800781,7.50488281 L37.5800781,7.40234375 C37.5800781,6.55924479 37.4010417,5.88460286 37.0429688,5.37841797 C36.6848958,4.87223307 36.1884766,4.61914062 35.5537109,4.61914062 C35.1761068,4.61914062 34.8505859,4.69970703 34.5771484,4.86083984 C34.3037109,5.02197266 34.0791016,5.25065104 33.9033203,5.546875 L33.9033203,5.546875 L33.9033203,2.3828125 L33.3173828,2.3828125 L33.3173828,10 L33.8203125,10 L33.8837891,9.20410156 C34.0563151,9.4938151 34.2825521,9.71598307 34.5625,9.87060547 C34.8424479,10.0252279 35.1761068,10.1025391 35.5634766,10.1025391 Z M35.4511719,9.59472656 C35.0670573,9.59472656 34.7456055,9.50439453 34.4868164,9.32373047 C34.2280273,9.14306641 34.0335286,8.89973958 33.9033203,8.59375 L33.9033203,8.59375 L33.9033203,6.20605469 C34.023763,5.89029948 34.2084961,5.63151042 34.4575195,5.4296875 C34.706543,5.22786458 35.0345052,5.12695312 35.4414062,5.12695312 C35.952474,5.12695312 36.3382161,5.33772786 36.5986328,5.75927734 C36.8590495,6.18082682 36.9892578,6.72851562 36.9892578,7.40234375 L36.9892578,7.40234375 L36.9892578,7.50488281 C36.9892578,8.14290365 36.8606771,8.65071615 36.6035156,9.02832031 C36.3463542,9.40592448 35.9622396,9.59472656 35.4511719,9.59472656 Z M38.9208984,10.6103516 L41.8847656,2.890625 L41.3574219,2.890625 L38.3886719,10.6103516 L38.9208984,10.6103516 Z" id="folderb/" fill="#000000" fill-rule="nonzero"></path>
        </g>
        <g id="Group" transform="translate(83.000000, 74.000000)">
            <rect id="Rectangle" fill="#D8D8D8" x="0" y="0" width="118" height="14"></rect>
            <path d="M5.69921875,10 L5.69921875,5.1953125 L6.93457031,5.1953125 L6.93457031,4.71679688 L5.69921875,4.71679688 L5.69921875,4.04296875 C5.69921875,3.64583333 5.80094401,3.34147135 6.00439453,3.12988281 C6.20784505,2.91829427 6.50813802,2.8125 6.90527344,2.8125 C7.14290365,2.8125 7.35449219,2.83528646 7.54003906,2.88085938 C7.72558594,2.92643229 7.91764323,2.98990885 8.11621094,3.07128906 L8.11621094,3.07128906 L8.21386719,2.56835938 C7.9827474,2.47395833 7.75488281,2.40234375 7.53027344,2.35351562 C7.30566406,2.3046875 7.0843099,2.28027344 6.86621094,2.28027344 C6.31608073,2.28027344 5.88639323,2.43408203 5.57714844,2.74169922 C5.26790365,3.04931641 5.11328125,3.48307292 5.11328125,4.04296875 L5.11328125,4.04296875 L5.11328125,4.71679688 L4.234375,4.71679688 L4.234375,5.1953125 L5.11328125,5.1953125 L5.11328125,10 L5.69921875,10 Z M8.53125,10 L8.53125,4.71679688 L7.9453125,4.71679688 L7.9453125,10 L8.53125,10 Z M10.921875,10 L10.921875,2.3828125 L10.3408203,2.3828125 L10.3408203,10 L10.921875,10 Z M14.6455078,10.1025391 C15.0654297,10.1025391 15.4275716,10.0415039 15.7319336,9.91943359 C16.0362956,9.79736328 16.2877604,9.63216146 16.4863281,9.42382812 L16.4863281,9.42382812 L16.2373047,9.0234375 C16.055013,9.21223958 15.8352865,9.35709635 15.578125,9.45800781 C15.3209635,9.55891927 15.0100911,9.609375 14.6455078,9.609375 C14.1311849,9.609375 13.7161458,9.40917969 13.4003906,9.00878906 C13.0846354,8.60839844 12.9267578,8.11035156 12.9267578,7.51464844 L12.9267578,7.51464844 L12.9267578,7.37304688 L16.6572266,7.37304688 L16.6572266,6.875 C16.6572266,6.19140625 16.4716797,5.64453125 16.1005859,5.234375 C15.7294922,4.82421875 15.2200521,4.61914062 14.5722656,4.61914062 C13.953776,4.61914062 13.4272461,4.86816406 12.9926758,5.36621094 C12.5581055,5.86425781 12.3408203,6.49088542 12.3408203,7.24609375 L12.3408203,7.24609375 L12.3408203,7.51464844 C12.3408203,8.26334635 12.5597331,8.88183594 12.9975586,9.37011719 C13.4353841,9.85839844 13.9847005,10.1025391 14.6455078,10.1025391 Z M16.0761719,6.87988281 L12.9804688,6.87988281 L12.9707031,6.85546875 C13.0195312,6.35742188 13.1904297,5.94319661 13.4833984,5.61279297 C13.7763672,5.28238932 14.1393229,5.1171875 14.5722656,5.1171875 C15.0345052,5.1171875 15.4007161,5.2718099 15.6708984,5.58105469 C15.9410807,5.89029948 16.0761719,6.27441406 16.0761719,6.73339844 L16.0761719,6.73339844 L16.0761719,6.87988281 Z M20.6621094,10 L22.1660156,7.74902344 L23.6699219,10 L24.3535156,10 L22.4882812,7.30957031 L24.2802734,4.71679688 L23.5869141,4.71679688 L22.15625,6.875 L20.7353516,4.71679688 L20.046875,4.71679688 L21.8388672,7.30957031 L19.96875,10 L20.6621094,10 Z" id="flex" fill="#000000" fill-rule="nonzero"></path>
        </g>
        <g id="Group" transform="translate(83.000000, 92.000000)">
            <rect id="Rectangle" fill="#D8D8D8" x="0" y="0" width="118" height="14"></rect>
            <path d="M5.69921875,10 L5.69921875,5.1953125 L6.93457031,5.1953125 L6.93457031,4.71679688 L5.69921875,4.71679688 L5.69921875,4.04296875 C5.69921875,3.64583333 5.80094401,3.34147135 6.00439453,3.12988281 C6.20784505,2.91829427 6.50813802,2.8125 6.90527344,2.8125 C7.14290365,2.8125 7.35449219,2.83528646 7.54003906,2.88085938 C7.72558594,2.92643229 7.91764323,2.98990885 8.11621094,3.07128906 L8.11621094,3.07128906 L8.21386719,2.56835938 C7.9827474,2.47395833 7.75488281,2.40234375 7.53027344,2.35351562 C7.30566406,2.3046875 7.0843099,2.28027344 6.86621094,2.28027344 C6.31608073,2.28027344 5.88639323,2.43408203 5.57714844,2.74169922 C5.26790365,3.04931641 5.11328125,3.48307292 5.11328125,4.04296875 L5.11328125,4.04296875 L5.11328125,4.71679688 L4.234375,4.71679688 L4.234375,5.1953125 L5.11328125,5.1953125 L5.11328125,10 L5.69921875,10 Z M8.53125,10 L8.53125,4.71679688 L7.9453125,4.71679688 L7.9453125,10 L8.53125,10 Z M10.921875,10 L10.921875,2.3828125 L10.3408203,2.3828125 L10.3408203,10 L10.921875,10 Z M14.6455078,10.1025391 C15.0654297,10.1025391 15.4275716,10.0415039 15.7319336,9.91943359 C16.0362956,9.79736328 16.2877604,9.63216146 16.4863281,9.42382812 L16.4863281,9.42382812 L16.2373047,9.0234375 C16.055013,9.21223958 15.8352865,9.35709635 15.578125,9.45800781 C15.3209635,9.55891927 15.0100911,9.609375 14.6455078,9.609375 C14.1311849,9.609375 13.7161458,9.40917969 13.4003906,9.00878906 C13.0846354,8.60839844 12.9267578,8.11035156 12.9267578,7.51464844 L12.9267578,7.51464844 L12.9267578,7.37304688 L16.6572266,7.37304688 L16.6572266,6.875 C16.6572266,6.19140625 16.4716797,5.64453125 16.1005859,5.234375 C15.7294922,4.82421875 15.2200521,4.61914062 14.5722656,4.61914062 C13.953776,4.61914062 13.4272461,4.86816406 12.9926758,5.36621094 C12.5581055,5.86425781 12.3408203,6.49088542 12.3408203,7.24609375 L12.3408203,7.24609375 L12.3408203,7.51464844 C12.3408203,8.26334635 12.5597331,8.88183594 12.9975586,9.37011719 C13.4353841,9.85839844 13.9847005,10.1025391 14.6455078,10.1025391 Z M16.0761719,6.87988281 L12.9804688,6.87988281 L12.9707031,6.85546875 C13.0195312,6.35742188 13.1904297,5.94319661 13.4833984,5.61279297 C13.7763672,5.28238932 14.1393229,5.1171875 14.5722656,5.1171875 C15.0345052,5.1171875 15.4007161,5.2718099 15.6708984,5.58105469 C15.9410807,5.89029948 16.0761719,6.27441406 16.0761719,6.73339844 L16.0761719,6.73339844 L16.0761719,6.87988281 Z M20.6767578,12.1337891 C21.0966797,12.1337891 21.4156901,12.0084635 21.6337891,11.7578125 C21.851888,11.5071615 22.0292969,11.2027995 22.1660156,10.8447266 L22.1660156,10.8447266 L24.4609375,4.71679688 L23.8066406,4.71679688 L22.2099609,9.19921875 L22.1806641,9.19921875 L21.9951172,8.56933594 L20.5449219,4.71679688 L19.8955078,4.71679688 L21.9365234,9.93164062 L21.6582031,10.6445312 C21.5507812,10.9277344 21.4205729,11.159668 21.2675781,11.340332 C21.1145833,11.5209961 20.9111328,11.6113281 20.6572266,11.6113281 C20.6181641,11.6113281 20.5555013,11.6072591 20.4692383,11.5991211 C20.3829753,11.5909831 20.3203125,11.5836589 20.28125,11.5771484 L20.28125,11.5771484 L20.2128906,12.0654297 C20.2584635,12.0817057 20.3300781,12.097168 20.4277344,12.1118164 C20.5253906,12.1264648 20.6083984,12.1337891 20.6767578,12.1337891 Z" id="fley" fill="#000000" fill-rule="nonzero"></path>
        </g>
        <rect id="Rectangle" fill="#D8D8D8" x="75" y="20" width="118" height="14"></rect>
        <path d="M81.9628906,30 L81.9628906,27.3046875 L83.5546875,27.3046875 C84.3391927,27.3046875 84.9536133,27.1036784 85.3979492,26.7016602 C85.8422852,26.2996419 86.0644531,25.764974 86.0644531,25.0976562 C86.0644531,24.436849 85.8422852,23.9038086 85.3979492,23.4985352 C84.9536133,23.0932617 84.3391927,22.890625 83.5546875,22.890625 L83.5546875,22.890625 L80.7763672,22.890625 L80.7763672,30 L81.9628906,30 Z M83.5546875,26.3525391 L81.9628906,26.3525391 L81.9628906,23.8427734 L83.5546875,23.8427734 C83.9941406,23.8427734 84.3245443,23.9632161 84.5458984,24.2041016 C84.7672526,24.444987 84.8779297,24.7460938 84.8779297,25.1074219 C84.8779297,25.46875 84.7672526,25.7666016 84.5458984,26.0009766 C84.3245443,26.2353516 83.9941406,26.3525391 83.5546875,26.3525391 L83.5546875,26.3525391 Z M88.3964844,30 L88.3964844,26.328125 C88.4811198,26.1490885 88.6007487,26.0107422 88.7553711,25.9130859 C88.9099935,25.8154297 89.1028646,25.7666016 89.3339844,25.7666016 L89.3339844,25.7666016 L89.8417969,25.7861328 L89.9833984,24.6777344 C89.9313151,24.6614583 89.874349,24.6476237 89.8125,24.6362305 C89.750651,24.6248372 89.6839193,24.6191406 89.6123047,24.6191406 C89.3388672,24.6191406 89.097168,24.695638 88.887207,24.8486328 C88.6772461,25.0016276 88.5055339,25.2132161 88.3720703,25.4833984 L88.3720703,25.4833984 L88.2939453,24.7167969 L87.2099609,24.7167969 L87.2099609,30 L88.3964844,30 Z M93.0039062,30.1025391 C93.7558594,30.1025391 94.3466797,29.8535156 94.7763672,29.3554688 C95.2093099,28.8541667 95.4257812,28.2063802 95.4257812,27.4121094 L95.4257812,27.4121094 L95.4257812,27.3095703 C95.4257812,26.5218099 95.2093099,25.8772786 94.7763672,25.3759766 C94.3466797,24.8714193 93.7526042,24.6191406 92.9941406,24.6191406 C92.2486979,24.6191406 91.6578776,24.8714193 91.2216797,25.3759766 C90.7919922,25.8805339 90.5771484,26.5250651 90.5771484,27.3095703 L90.5771484,27.3095703 L90.5771484,27.4121094 C90.5771484,28.203125 90.7919922,28.8492839 91.2216797,29.3505859 C91.6546224,29.851888 92.2486979,30.1025391 93.0039062,30.1025391 Z M93.0039062,29.1552734 C92.577474,29.1552734 92.264974,28.9941406 92.0664062,28.671875 C91.8645833,28.3463542 91.7636719,27.9264323 91.7636719,27.4121094 L91.7636719,27.4121094 L91.7636719,27.3095703 C91.7636719,26.8082682 91.8645833,26.3932292 92.0664062,26.0644531 C92.2714844,25.7356771 92.5807292,25.5712891 92.9941406,25.5712891 C93.4140625,25.5712891 93.7265625,25.7356771 93.9316406,26.0644531 C94.139974,26.389974 94.2441406,26.805013 94.2441406,27.3095703 L94.2441406,27.3095703 L94.2441406,27.4121094 C94.2441406,27.9264323 94.139974,28.3463542 93.9316406,28.671875 C93.7265625,28.9941406 93.4173177,29.1552734 93.0039062,29.1552734 Z M97.875,23.4228516 L97.875,22.3828125 L96.6884766,22.3828125 L96.6884766,23.4228516 L97.875,23.4228516 Z M96.1855469,32.1337891 C96.7259115,32.1337891 97.1474609,31.9750977 97.4501953,31.6577148 C97.7529297,31.340332 97.9042969,30.8902995 97.9042969,30.3076172 L97.9042969,30.3076172 L97.9042969,24.7167969 L96.7177734,24.7167969 L96.7177734,30.3076172 C96.7177734,30.6005859 96.6599935,30.8162435 96.5444336,30.9545898 C96.4288737,31.0929362 96.2701823,31.1621094 96.0683594,31.1621094 C96,31.1621094 95.9251302,31.1564128 95.84375,31.1450195 C95.7623698,31.1336263 95.6940104,31.1197917 95.6386719,31.1035156 L95.6386719,31.1035156 L95.5703125,32.0507812 C95.6744792,32.0800781 95.773763,32.101237 95.8681641,32.1142578 C95.9625651,32.1272786 96.0683594,32.1337891 96.1855469,32.1337891 Z M101.598633,30.1025391 C102.031576,30.1025391 102.412435,30.0423177 102.741211,29.921875 C103.069987,29.8014323 103.333659,29.6533203 103.532227,29.4775391 L103.532227,29.4775391 L103.151367,28.7011719 C102.939779,28.8476562 102.720052,28.9599609 102.492188,29.0380859 C102.264323,29.1162109 101.990885,29.1552734 101.671875,29.1552734 C101.271484,29.1552734 100.958171,29.0218099 100.731934,28.7548828 C100.505697,28.4879557 100.382812,28.1445312 100.363281,27.7246094 L100.363281,27.7246094 L100.373047,27.7001953 L103.668945,27.7001953 L103.668945,27.0019531 C103.668945,26.2760417 103.479329,25.6974284 103.100098,25.2661133 C102.720866,24.8347982 102.174805,24.6191094 101.461914,24.6191094 C100.797852,24.6158854 100.24528,24.8673503 99.8041992,25.3735352 C99.3631185,25.8797201 99.1425781,26.5169271 99.1425781,27.2851562 L99.1425781,27.2851562 L99.1425781,27.4804688 C99.1425781,28.2486979 99.3647461,28.8777669 99.809082,29.3676758 C100.253418,29.8575846 100.849935,30.1025391 101.598633,30.1025391 Z M102.492188,26.8310547 L100.397461,26.8310547 L100.387695,26.8066406 C100.433268,26.4485677 100.550456,26.1531576 100.739258,25.9204102 C100.92806,25.6876628 101.168945,25.5712891 101.461914,25.5712891 C101.806966,25.5712891 102.064941,25.6770833 102.23584,25.8886719 C102.406738,26.1002604 102.492188,26.3736979 102.492188,26.7089844 L102.492188,26.7089844 L102.492188,26.8310547 Z M106.933594,30.1025391 C107.522786,30.1025391 108.02653,29.9235026 108.444824,29.5654297 C108.863118,29.2073568 109.064128,28.7809245 109.047852,28.2861328 L109.047852,28.2861328 L109.038086,28.2568359 L107.963867,28.2568359 C107.963867,28.5139974 107.864583,28.7280273 107.666016,28.8989258 C107.467448,29.0698242 107.223307,29.1552734 106.933594,29.1552734 C106.48763,29.1552734 106.171875,28.9949544 105.986328,28.6743164 C105.800781,28.3536784 105.708008,27.9443359 105.708008,27.4462891 L105.708008,27.4462891 L105.708008,27.2753906 C105.708008,26.7871094 105.800781,26.3810221 105.986328,26.0571289 C106.171875,25.7332357 106.48763,25.5712891 106.933594,25.5712891 C107.239583,25.5712891 107.487793,25.6722005 107.678223,25.8740234 C107.868652,26.0758464 107.963867,26.3216146 107.963867,26.6113281 L107.963867,26.6113281 L109.042969,26.6113281 L109.052734,26.5820312 C109.065755,26.0123698 108.874512,25.542806 108.479004,25.1733398 C108.083496,24.8038737 107.568359,24.6191406 106.933594,24.6191406 C106.155599,24.6191406 105.559082,24.8706055 105.144043,25.3735352 C104.729004,25.8764648 104.521484,26.5104167 104.521484,27.2753906 L104.521484,27.2753906 L104.521484,27.4462891 C104.521484,28.2145182 104.729004,28.8492839 105.144043,29.3505859 C105.559082,29.851888 106.155599,30.1025391 106.933594,30.1025391 Z M111.814453,30.1025391 C111.964193,30.1025391 112.109049,30.0870768 112.249023,30.0561523 C112.388997,30.0252279 112.50944,29.9820964 112.610352,29.9267578 L112.610352,29.9267578 L112.483398,29.0576172 C112.42806,29.0771484 112.369466,29.0926107 112.307617,29.1040039 C112.245768,29.1153971 112.182292,29.1210938 112.117188,29.1210938 C111.960938,29.1210938 111.835612,29.074707 111.741211,28.9819336 C111.64681,28.8891602 111.599609,28.733724 111.599609,28.515625 L111.599609,28.515625 L111.599609,25.5957031 L112.546875,25.5957031 L112.546875,24.7167969 L111.599609,24.7167969 L111.599609,23.4326172 L110.417969,23.4326172 L110.417969,24.7167969 L109.612305,24.7167969 L109.612305,25.5957031 L110.417969,25.5957031 L110.417969,28.515625 C110.417969,29.0625 110.541667,29.4637044 110.789062,29.7192383 C111.036458,29.9747721 111.378255,30.1025391 111.814453,30.1025391 Z" id="Project" fill="#000000" fill-rule="nonzero"></path>
        <polygon id="Path-2" fill="#EAB45E" points="53 22 62.5 32 72 22"></polygon>
    </g>
</svg>