<?xml version="1.0" encoding="UTF-8"?>
<svg width="1060px" height="240px" viewBox="0 0 1060 240" version="1.1" xmlns="http://www.w3.org/2000/svg" xmlns:xlink="http://www.w3.org/1999/xlink">
    <!-- Generator: Sketch 61.2 (89653) - https://sketch.com -->
    <title>Artboard</title>
    <desc>Created with Sketch.</desc>
    <g id="Artboard" stroke="none" stroke-width="1" fill="none" fill-rule="evenodd">
        <g id="Group-2" transform="translate(177.000000, 36.000000)">
            <g id="Group">
                <g id="Group-4" transform="translate(135.000000, 90.000000) scale(-1, 1) translate(-135.000000, -90.000000) ">
                    <polygon id="Polygon" fill="#ECF7FF" points="180 0 250.364833 33.8859178 267.743512 110.026884 219.049537 171.087198 140.950463 171.087198 92.2564879 110.026884 109.635167 33.8859178"></polygon>
                    <polygon id="Polygon" fill="#93C7EA" points="153 0 223.364833 33.8859178 240.743512 110.026884 192.049537 171.087198 113.950463 171.087198 65.2564879 110.026884 82.6351666 33.8859178"></polygon>
                    <polygon id="Polygon" fill="#F9B53F" points="121 0 191.364833 33.8859178 208.743512 110.026884 160.049537 171.087198 81.9504635 171.087198 33.2564879 110.026884 50.6351666 33.8859178"></polygon>
                    <polygon id="Polygon" fill="#F9B53F" points="121 0 191.364833 33.8859178 208.743512 110.026884 160.049537 171.087198 81.9504635 171.087198 33.2564879 110.026884 50.6351666 33.8859178"></polygon>
                    <polygon id="Polygon" fill="#2E6DBA" points="90 0 160.364833 33.8859178 177.743512 110.026884 129.049537 171.087198 50.9504635 171.087198 2.2564879 110.026884 19.6351666 33.8859178"></polygon>
                </g>
                <polygon id="V" fill="#FFFFFF" fill-rule="nonzero" points="187.769531 125.09375 211.939453 54 196.900391 54 181.421875 106.294922 180.591797 110.054688 180.298828 110.054688 179.419922 106.197266 164.039062 54 149 54 173.121094 125.09375"></polygon>
            </g>
            <path d="M325.955386,121 L351,54 L343.443961,54 L325.528836,104.219039 L323.213275,112.083179 L322.847661,112.083179 L320.714908,104.219039 L302.556039,54 L295,54 L320.10555,121 L325.955386,121 Z M377.403468,122 C382.509441,122 387.104817,120.83645 391.189595,118.50935 C395.274374,116.18225 398.542197,113.252597 400.993064,109.720392 C400.993064,111.424161 401.095183,113.107153 401.299422,114.769368 C401.503661,116.431582 401.850867,118.405462 402.34104,120.691006 L402.34104,120.691006 L410,120.691006 C409.387283,118.488572 408.94817,116.265361 408.682659,114.021371 C408.417148,111.777382 408.284393,109.47106 408.284393,107.102404 L408.284393,107.102404 L408.284393,73.9412289 C408.284393,66.876818 406.058189,61.4538439 401.60578,57.6723063 C397.153372,53.8907688 391.271291,52 383.959538,52 C376.606936,52 370.551252,53.9842683 365.792486,57.952805 C361.033719,61.9213416 358.776879,66.4197091 359.021965,71.4479074 L359.021965,71.4479074 L359.144509,71.8219056 L365.884393,71.8842386 C365.884393,68.1027011 367.569364,64.9029386 370.939306,62.284951 C374.309249,59.6669635 378.547206,58.3579697 383.653179,58.3579697 C389.126782,58.3579697 393.385164,59.7292965 396.428324,62.4719501 C399.471484,65.2146037 400.993064,68.9961413 400.993064,73.8165628 L400.993064,73.8165628 L400.993064,82.1691897 L386.349133,82.1691897 C377.36262,82.1691897 370.22447,84.0391808 364.934682,87.779163 C359.644894,91.5191451 357,96.5057881 357,102.739092 C357,108.598397 358.787091,113.273375 362.361272,116.764025 C365.935453,120.254675 370.949518,122 377.403468,122 Z M378.083472,116 C373.67724,116 370.228436,114.825397 367.737062,112.47619 C365.245687,110.126984 364,107.089947 364,103.365079 C364,99.005291 366.007513,95.3544974 370.022538,92.4126984 C374.037563,89.4708995 379.401224,88 386.113523,88 L386.113523,88 L401,88 L401,102.349206 C399.188091,106.328042 396.24374,109.597884 392.166945,112.15873 C388.09015,114.719577 383.395659,116 378.083472,116 Z M431.70428,120 L431.70428,73.9056261 C433.031128,69.3393829 435.246109,65.7501512 438.349222,63.137931 C441.452335,60.5257108 445.422179,59.2196007 450.258755,59.2196007 L450.258755,59.2196007 L455.972763,59.5898367 L457,52.6787659 C456.400778,52.5142166 455.641051,52.3599516 454.720817,52.215971 C453.800584,52.0719903 452.848249,52 451.863813,52 C447.198444,52 443.175097,53.1518451 439.793774,55.4555354 C436.412451,57.7592257 433.715953,60.9679371 431.70428,65.0816697 L431.70428,65.0816697 L431.70428,64.3411978 L430.741245,53.2341198 L424,53.2341198 L424,120 L431.70428,120 Z M472,33 L472,24 L464,24 L464,33 L472,33 Z M472,121 L472,54 L464,54 L464,121 L472,121 Z M506.403468,122 C511.509441,122 516.104817,120.83645 520.189595,118.50935 C524.274374,116.18225 527.542197,113.252597 529.993064,109.720392 C529.993064,111.424161 530.095183,113.107153 530.299422,114.769368 C530.503661,116.431582 530.850867,118.405462 531.34104,120.691006 L531.34104,120.691006 L539,120.691006 C538.387283,118.488572 537.94817,116.265361 537.682659,114.021371 C537.417148,111.777382 537.284393,109.47106 537.284393,107.102404 L537.284393,107.102404 L537.284393,73.9412289 C537.284393,66.876818 535.058189,61.4538439 530.60578,57.6723063 C526.153372,53.8907688 520.271291,52 512.959538,52 C505.606936,52 499.551252,53.9842683 494.792486,57.952805 C490.033719,61.9213416 487.776879,66.4197091 488.021965,71.4479074 L488.021965,71.4479074 L488.144509,71.8219056 L494.884393,71.8842386 C494.884393,68.1027011 496.569364,64.9029386 499.939306,62.284951 C503.309249,59.6669635 507.547206,58.3579697 512.653179,58.3579697 C518.126782,58.3579697 522.385164,59.7292965 525.428324,62.4719501 C528.471484,65.2146037 529.993064,68.9961413 529.993064,73.8165628 L529.993064,73.8165628 L529.993064,82.1691897 L515.349133,82.1691897 C506.36262,82.1691897 499.22447,84.0391808 493.934682,87.779163 C488.644894,91.5191451 486,96.5057881 486,102.739092 C486,108.598397 487.787091,113.273375 491.361272,116.764025 C494.935453,120.254675 499.949518,122 506.403468,122 Z M507.083472,116 C502.67724,116 499.228436,114.825397 496.737062,112.47619 C494.245687,110.126984 493,107.089947 493,103.365079 C493,99.005291 495.007513,95.3544974 499.022538,92.4126984 C503.037563,89.4708995 508.401224,88 515.113523,88 L515.113523,88 L530,88 L530,102.349206 C528.188091,106.328042 525.24374,109.597884 521.166945,112.15873 C517.09015,114.719577 512.395659,116 507.083472,116 Z M560.400242,120 L560.400242,73.4119782 C561.839178,68.8868724 564.192866,65.2565033 567.461306,62.5208711 C570.729746,59.785239 574.954051,58.4174229 580.13422,58.4174229 C585.396614,58.4174229 589.456469,60.0012099 592.313785,63.168784 C595.1711,66.3363581 596.599758,71.7459165 596.599758,79.3974592 L596.599758,79.3974592 L596.599758,120 L604,120 L604,79.3357532 C604,69.9564428 602.108827,63.0556564 598.326481,58.6333938 C594.544135,54.2111313 589.035067,52 581.799274,52 C576.824667,52 572.518138,53.1209921 568.879686,55.3629764 C565.241233,57.6049607 562.353083,60.7828191 560.215236,64.8965517 L560.215236,64.8965517 L559.53688,53.2341198 L553,53.2341198 L553,120 L560.400242,120 Z M640.248722,122 C642.006814,122 643.764906,121.854589 645.522998,121.563768 C647.28109,121.272947 648.773424,120.857488 650,120.317391 L650,120.317391 L648.896082,114.771014 C647.424191,115.02029 646.126065,115.19686 645.001704,115.300725 C643.877342,115.404589 642.722317,115.456522 641.536627,115.456522 C638.919932,115.456522 636.824532,114.532126 635.250426,112.683333 C633.67632,110.834541 632.889267,107.708213 632.889267,103.304348 L632.889267,103.304348 L632.889267,59.3695652 L647.48552,59.3695652 L647.48552,53.2623188 L632.889267,53.2623188 L632.889267,36 L625.468484,36 L625.468484,53.2623188 L614,53.2623188 L614,59.3695652 L625.468484,59.3695652 L625.468484,103.304348 C625.468484,109.785507 626.76661,114.521739 629.362862,117.513043 C631.959114,120.504348 635.587734,122 640.248722,122 Z M682.530594,122 C689.889814,122 695.807853,120.265064 700.284712,116.795191 C704.761571,113.325319 707,108.785396 707,103.175423 C707,97.8563372 705.037541,93.6488572 701.112624,90.5529831 C697.187707,87.4571089 691.279888,85.0157317 683.389169,83.2288513 C676.479679,81.6913031 671.869946,79.9044227 669.559968,77.8682102 C667.249991,75.8319976 666.095002,73.2555654 666.095002,70.1389136 C666.095002,66.9807064 667.433971,64.227664 670.11191,61.8797863 C672.789848,59.5319086 676.806756,58.3579697 682.162633,58.3579697 C687.395856,58.3579697 691.555859,59.7292965 694.642643,62.4719501 C697.729427,65.2146037 699.272819,68.435144 699.272819,72.1335708 L699.272819,72.1335708 L706.080098,72.1335708 L706.202751,71.7595726 C706.407174,66.1080439 704.322062,61.4018997 699.947414,57.6411398 C695.572767,53.8803799 689.644506,52 682.162633,52 C675.130489,52 669.478199,53.7764915 665.205763,57.3294746 C660.933327,60.8824577 658.797109,65.2353814 658.797109,70.3882458 C658.797109,75.6242208 660.68802,79.6758682 664.469841,82.5431879 C668.251663,85.4105076 674.108375,87.7168299 682.039979,89.4621549 C688.704161,90.9581478 693.313895,92.890472 695.86918,95.2591273 C698.424464,97.6277827 699.702107,100.391214 699.702107,103.549421 C699.702107,106.915405 698.168936,109.782725 695.102594,112.15138 C692.036253,114.520036 687.845586,115.704363 682.530594,115.704363 C677.624447,115.704363 673.362232,114.603146 669.743949,112.400712 C666.125666,110.198278 664.173428,106.666073 663.887236,101.804096 L663.887236,101.804096 L657.141285,101.804096 L657.018631,102.178094 C656.773324,107.580291 658.950426,112.234491 663.549939,116.140695 C668.149451,120.046898 674.476336,122 682.530594,122 Z" id="variants" fill="#02234B" fill-rule="nonzero"></path>
        </g>
    </g>
</svg>