<?xml version="1.0" encoding="UTF-8"?>
<svg width="1119px" height="199px" viewBox="0 0 1119 199" version="1.1" xmlns="http://www.w3.org/2000/svg" xmlns:xlink="http://www.w3.org/1999/xlink">
    <!-- Generator: Sketch 61.2 (89653) - https://sketch.com -->
    <title>Artboard</title>
    <desc>Created with Sketch.</desc>
    <defs>
        <polygon id="path-1" points="0 2.97657143 0 0.119428571 11.9712 0.119428571 11.9712 2.97657143"></polygon>
        <polygon id="path-3" points="0 0 14 0 14 9 0 9"></polygon>
        <polygon id="path-5" points="0 0 14 0 14 9 0 9"></polygon>
        <polygon id="path-7" points="0 0 14 0 14 9 0 9"></polygon>
    </defs>
    <g id="Artboard" stroke="none" stroke-width="1" fill="none" fill-rule="evenodd">
        <g id="Products_Product-variant" transform="translate(238.000000, 57.000000)">
            <path d="M182.921053,93 L144.078947,93 C143.482289,93 143,92.3295 143,91.5 C143,90.6705 143.482289,90 144.078947,90 L182.921053,90 C183.517711,90 184,90.6705 184,91.5 C184,92.3295 183.517711,93 182.921053,93" id="Path" fill="#375D81" fill-rule="nonzero"></path>
            <path d="M90.9015119,90 L17.0984881,90 C16.4921227,90 16,89.3295 16,88.5 C16,87.6705 16.4921227,87 17.0984881,87 L90.9015119,87 C91.5089758,87 92,87.6705 92,88.5 C92,89.3295 91.5089758,90 90.9015119,90" id="Path" fill="#375D81" fill-rule="nonzero"></path>
            <line x1="100" y1="88.5" x2="109" y2="88.5" id="Path" fill="#FFFFFF" fill-rule="nonzero"></line>
            <path d="M108.922897,90 L99.0771026,90 C98.482542,90 98,89.3295 98,88.5 C98,87.6705 98.482542,87 99.0771026,87 L108.922897,87 C109.518535,87 110,87.6705 110,88.5 C110,89.3295 109.518535,90 108.922897,90" id="Path" fill="#375D81" fill-rule="nonzero"></path>
            <line x1="9" y1="88.4625" x2="4" y2="88.5375" id="Path" fill="#FFFFFF" fill-rule="nonzero"></line>
            <path d="M3.14294461,90 C2.51896371,90 2.01040785,89.3681928 2.00012245,88.5759036 C1.99097987,87.7778313 2.49496444,87.1214458 3.12580227,87.1084337 L8.83991306,87 L8.85705539,87 C9.48103629,87 9.98959215,87.6318072 9.99987755,88.4240964 C10.0090201,89.2221687 9.50503556,89.8785542 8.87419773,89.8915663 L3.16008694,90 L3.14294461,90 Z" id="Path" fill="#375D81" fill-rule="nonzero"></path>
            <line x1="126" y1="77.5" x2="173" y2="77.5" id="Path" fill="#FFFFFF" fill-rule="nonzero"></line>
            <line x1="181" y1="77.5" x2="189" y2="77.5" id="Path" fill="#FFFFFF" fill-rule="nonzero"></line>
            <g id="Group" transform="translate(125.000000, 90.000000)">
                <g id="Clipped">
                    <mask id="mask-2" fill="white">
                        <use xlink:href="#path-1"></use>
                    </mask>
                    <g id="a"></g>
                    <path d="M10.8802909,2.97657143 L1.09047273,2.97657143 C0.488290909,2.97657143 -0.000436363636,2.338 -0.000436363636,1.548 C-0.000436363636,0.758 0.488290909,0.119428571 1.09047273,0.119428571 L10.8802909,0.119428571 C11.4835636,0.119428571 11.9712,0.758 11.9712,1.548 C11.9712,2.338 11.4835636,2.97657143 10.8802909,2.97657143" id="Path" fill="#375D81" fill-rule="nonzero" mask="url(#mask-2)"></path>
                </g>
            </g>
            <path d="M49.517967,78 L3.48203302,78 C2.11058595,78 1,76.912224 1,75.5713516 L1,14.4286484 C1,13.087776 2.11058595,12 3.48203302,12 L49.517967,12 C50.889414,12 52,13.087776 52,14.4286484 L52,75.5713516 C52,76.912224 50.889414,78 49.517967,78" id="Path" fill="#FFFFFF" fill-rule="nonzero"></path>
            <polyline id="Path" fill="#EFEFF6" fill-rule="nonzero" points="46.5300085 70.3430054 6 73 6 18.771215 47 17"></polyline>
            <path d="M3.56915279,12.1807494 C2.81036516,12.1807494 2.19302783,12.7935399 2.19302783,13.5491696 L2.19302783,75.4508304 C2.19302783,76.2064601 2.81036516,76.8192506 3.56915279,76.8192506 L49.4308472,76.8192506 C50.1907314,76.8192506 50.8069722,76.2064601 50.8069722,75.4508304 L50.8069722,13.5491696 C50.8069722,12.7935399 50.1907314,12.1807494 49.4308472,12.1807494 L3.56915279,12.1807494 Z M49.4308472,79 L3.56915279,79 C1.60091031,79 0,77.408053 0,75.4508304 L0,13.5491696 C0,11.591947 1.60091031,10 3.56915279,10 L49.4308472,10 C51.3990897,10 53,11.591947 53,13.5491696 L53,75.4508304 C53,77.408053 51.3990897,79 49.4308472,79 Z" id="Shape" fill="#375D81" fill-rule="nonzero"></path>
            <line x1="12" y1="52.5" x2="42" y2="52.5" id="Path" fill="#FFFFFF" fill-rule="nonzero"></line>
            <path d="M41.9,54 L11.1,54 C10.4917,54 10,53.3295 10,52.5 C10,51.6705 10.4917,51 11.1,51 L41.9,51 C42.5083,51 43,51.6705 43,52.5 C43,53.3295 42.5083,54 41.9,54" id="Path" fill="#9ACDED" fill-rule="nonzero"></path>
            <line x1="12" y1="58.5" x2="42" y2="58.5" id="Path" fill="#FFFFFF" fill-rule="nonzero"></line>
            <path d="M41.9,60 L11.1,60 C10.4917,60 10,59.3295 10,58.5 C10,57.6705 10.4917,57 11.1,57 L41.9,57 C42.5083,57 43,57.6705 43,58.5 C43,59.3295 42.5083,60 41.9,60" id="Path" fill="#9ACDED" fill-rule="nonzero"></path>
            <line x1="12" y1="65.5" x2="42" y2="65.5" id="Path" fill="#FFFFFF" fill-rule="nonzero"></line>
            <path d="M41.9,67 L11.1,67 C10.4917,67 10,66.3295 10,65.5 C10,64.6705 10.4917,64 11.1,64 L41.9,64 C42.5083,64 43,64.6705 43,65.5 C43,66.3295 42.5083,67 41.9,67" id="Path" fill="#9ACDED" fill-rule="nonzero"></path>
            <path d="M114.517967,78 L68.482033,78 C67.110586,78 66,76.912224 66,75.5713516 L66,14.4286484 C66,13.087776 67.110586,12 68.482033,12 L114.517967,12 C115.888313,12 117,13.087776 117,14.4286484 L117,75.5713516 C117,76.912224 115.888313,78 114.517967,78" id="Path" fill="#FFFFFF" fill-rule="nonzero"></path>
            <path d="M68.5691528,12.1807494 C67.8103652,12.1807494 67.1930278,12.7935399 67.1930278,13.5491696 L67.1930278,75.4508304 C67.1930278,76.2064601 67.8103652,76.8192506 68.5691528,76.8192506 L114.430847,76.8192506 C115.190731,76.8192506 115.806972,76.2064601 115.806972,75.4508304 L115.806972,13.5491696 C115.806972,12.7935399 115.190731,12.1807494 114.430847,12.1807494 L68.5691528,12.1807494 Z M114.430847,79 L68.5691528,79 C66.6009103,79 65,77.408053 65,75.4508304 L65,13.5491696 C65,11.591947 66.6009103,10 68.5691528,10 L114.430847,10 C116.39909,10 118,11.591947 118,13.5491696 L118,75.4508304 C118,77.408053 116.39909,79 114.430847,79 Z" id="Shape" fill="#375D81" fill-rule="nonzero"></path>
            <polyline id="Path" fill="#EFEFF6" fill-rule="nonzero" points="110.530008 72.3430054 70 75 70 20.771215 111 19"></polyline>
            <line x1="77" y1="52.5" x2="107" y2="52.5" id="Path" fill="#FFFFFF" fill-rule="nonzero"></line>
            <path d="M107.9,54 L77.1,54 C76.4917,54 76,53.3295 76,52.5 C76,51.6705 76.4917,51 77.1,51 L107.9,51 C108.5083,51 109,51.6705 109,52.5 C109,53.3295 108.5083,54 107.9,54" id="Path" fill="#9ACDED" fill-rule="nonzero"></path>
            <line x1="77" y1="58.5" x2="107" y2="58.5" id="Path" fill="#FFFFFF" fill-rule="nonzero"></line>
            <path d="M107.9,60 L77.1,60 C76.4917,60 76,59.3295 76,58.5 C76,57.6705 76.4917,57 77.1,57 L107.9,57 C108.5083,57 109,57.6705 109,58.5 C109,59.3295 108.5083,60 107.9,60" id="Path" fill="#9ACDED" fill-rule="nonzero"></path>
            <line x1="77" y1="65.5" x2="107" y2="65.5" id="Path" fill="#FFFFFF" fill-rule="nonzero"></line>
            <path d="M107.9,67 L77.1,67 C76.4917,67 76,66.3295 76,65.5 C76,64.6705 76.4917,64 77.1,64 L107.9,64 C108.5083,64 109,64.6705 109,65.5 C109,66.3295 108.5083,67 107.9,67" id="Path" fill="#9ACDED" fill-rule="nonzero"></path>
            <path d="M179.518021,78 L133.481979,78 C132.111663,78 131,76.912224 131,75.5713516 L131,14.4286484 C131,13.087776 132.111663,12 133.481979,12 L179.518021,12 C180.888337,12 182,13.087776 182,14.4286484 L182,75.5713516 C182,76.912224 180.888337,78 179.518021,78" id="Path" fill="#FFFFFF" fill-rule="nonzero"></path>
            <path d="M133.569079,12.1807494 C132.810307,12.1807494 132.192982,12.7935399 132.192982,13.5491696 L132.192982,75.4508304 C132.192982,76.2064601 132.810307,76.8192506 133.569079,76.8192506 L179.430921,76.8192506 C180.190789,76.8192506 180.807018,76.2064601 180.807018,75.4508304 L180.807018,13.5491696 C180.807018,12.7935399 180.190789,12.1807494 179.430921,12.1807494 L133.569079,12.1807494 Z M179.430921,79 L133.569079,79 C131.600877,79 130,77.408053 130,75.4508304 L130,13.5491696 C130,11.591947 131.600877,10 133.569079,10 L179.430921,10 C181.399123,10 183,11.591947 183,13.5491696 L183,75.4508304 C183,77.408053 181.399123,79 179.430921,79 Z" id="Shape" fill="#375D81" fill-rule="nonzero"></path>
            <polyline id="Path" fill="#EFEFF6" fill-rule="nonzero" points="178.530008 69.3430054 138 72 138 17.771215 179 16"></polyline>
            <line x1="142" y1="52.5" x2="172" y2="52.5" id="Path" fill="#FFFFFF" fill-rule="nonzero"></line>
            <path d="M172.9,54 L142.1,54 C141.4917,54 141,53.3295 141,52.5 C141,51.6705 141.4917,51 142.1,51 L172.9,51 C173.5083,51 174,51.6705 174,52.5 C174,53.3295 173.5083,54 172.9,54" id="Path" fill="#9ACDED" fill-rule="nonzero"></path>
            <line x1="142" y1="58.5" x2="172" y2="58.5" id="Path" fill="#FFFFFF" fill-rule="nonzero"></line>
            <path d="M172.9,60 L142.1,60 C141.4917,60 141,59.3295 141,58.5 C141,57.6705 141.4917,57 142.1,57 L172.9,57 C173.5083,57 174,57.6705 174,58.5 C174,59.3295 173.5083,60 172.9,60" id="Path" fill="#9ACDED" fill-rule="nonzero"></path>
            <line x1="142" y1="65.5" x2="172" y2="65.5" id="Path" fill="#FFFFFF" fill-rule="nonzero"></line>
            <path d="M172.9,67 L142.1,67 C141.4917,67 141,66.3295 141,65.5 C141,64.6705 141.4917,64 142.1,64 L172.9,64 C173.5083,64 174,64.6705 174,65.5 C174,66.3295 173.5083,67 172.9,67" id="Path" fill="#9ACDED" fill-rule="nonzero"></path>
            <path d="M35,34.5 C35,40.299431 30.299431,45 24.5,45 C18.7016358,45 14,40.299431 14,34.5 C14,28.700569 18.7016358,24 24.5,24 C30.299431,24 35,28.700569 35,34.5" id="Path" fill="#EFEFF6" fill-rule="nonzero"></path>
            <path d="M37,31.5 C37,37.299431 32.299431,42 26.5,42 C20.7016358,42 16,37.299431 16,31.5 C16,25.700569 20.7016358,21 26.5,21 C32.299431,21 37,25.700569 37,31.5" id="Path" fill="#FFFFFF" fill-rule="nonzero"></path>
            <path d="M27.5,22.1213798 C22.3291367,22.1213798 18.1213798,26.3291367 18.1213798,31.5 C18.1213798,36.6708633 22.3291367,40.8786202 27.5,40.8786202 C32.6708633,40.8786202 36.8786202,36.6708633 36.8786202,31.5 C36.8786202,26.3291367 32.6708633,22.1213798 27.5,22.1213798 M27.5,43 C21.158135,43 16,37.8408043 16,31.5 C16,25.158135 21.158135,20 27.5,20 C33.841865,20 39,25.158135 39,31.5 C39,37.8408043 33.841865,43 27.5,43" id="Shape" fill="#9ACDED" fill-rule="nonzero"></path>
            <g id="06_Backbase_B-icon_white_RGB" transform="translate(19.000000, 27.000000)">
                <mask id="mask-4" fill="white">
                    <use xlink:href="#path-3"></use>
                </mask>
                <g id="Clip-2"></g>
                <path d="M12.4494046,0.013843341 L4.36249085,0.013843341 L5.52304343,1.97502685 L5.98942237,1.97502685 L6.05726176,1.97672461 L11.4875149,1.97711641 C11.6283188,1.97711641 11.9681901,2.04450475 11.9700782,2.48357373 L11.9700782,6.54411295 C11.9681901,6.98409612 11.6283188,7.05043968 11.4875149,7.05043968 L4.64086162,7.06650318 L4.63722015,5.40255971 L10.2734191,5.40255971 L10.2734191,3.53566764 L4.51543293,3.5431117 L2.34147046,0 L0,0 L2.62361759,4.4252982 L2.62105507,8.99830223 L4.57841702,8.99830223 L4.57841702,9 L12.5755077,9 C13.4760318,9 14,8.24044461 14,6.7178077 L14,1.98364628 C14,0.677931915 13.4760318,0.013843341 12.4494046,0.013843341" id="Fill-1" fill="#D4604F" mask="url(#mask-4)"></path>
            </g>
            <path d="M101,34.5 C101,40.299431 96.299431,45 90.5,45 C84.7016358,45 80,40.299431 80,34.5 C80,28.700569 84.7016358,24 90.5,24 C96.299431,24 101,28.700569 101,34.5" id="Path" fill="#EFEFF6" fill-rule="nonzero"></path>
            <path d="M103,31.5 C103,37.299431 98.299431,42 92.5,42 C86.7016358,42 82,37.299431 82,31.5 C82,25.700569 86.7016358,21 92.5,21 C98.299431,21 103,25.700569 103,31.5" id="Path" fill="#FFFFFF" fill-rule="nonzero"></path>
            <path d="M91.5,22.1213798 C86.3291367,22.1213798 82.1213798,26.3291367 82.1213798,31.5 C82.1213798,36.6708633 86.3291367,40.8786202 91.5,40.8786202 C96.6708633,40.8786202 100.87862,36.6708633 100.87862,31.5 C100.87862,26.3291367 96.6708633,22.1213798 91.5,22.1213798 M91.5,43 C85.158135,43 80,37.8408043 80,31.5 C80,25.158135 85.158135,20 91.5,20 C97.841865,20 103,25.158135 103,31.5 C103,37.8408043 97.841865,43 91.5,43" id="Shape" fill="#9ACDED" fill-rule="nonzero"></path>
            <g id="06_Backbase_B-icon_white_RGB" transform="translate(84.000000, 27.000000)">
                <mask id="mask-6" fill="white">
                    <use xlink:href="#path-5"></use>
                </mask>
                <g id="Clip-2"></g>
                <path d="M12.4494046,0.013843341 L4.36249085,0.013843341 L5.52304343,1.97502685 L5.98942237,1.97502685 L6.05726176,1.97672461 L11.4875149,1.97711641 C11.6283188,1.97711641 11.9681901,2.04450475 11.9700782,2.48357373 L11.9700782,6.54411295 C11.9681901,6.98409612 11.6283188,7.05043968 11.4875149,7.05043968 L4.64086162,7.06650318 L4.63722015,5.40255971 L10.2734191,5.40255971 L10.2734191,3.53566764 L4.51543293,3.5431117 L2.34147046,0 L0,0 L2.62361759,4.4252982 L2.62105507,8.99830223 L4.57841702,8.99830223 L4.57841702,9 L12.5755077,9 C13.4760318,9 14,8.24044461 14,6.7178077 L14,1.98364628 C14,0.677931915 13.4760318,0.013843341 12.4494046,0.013843341" id="Fill-1" fill="#F9B53F" mask="url(#mask-6)"></path>
            </g>
            <path d="M167,34.5 C167,40.299431 162.298603,45 156.499467,45 C150.702464,45 146,40.299431 146,34.5 C146,28.700569 150.702464,24 156.499467,24 C162.298603,24 167,28.700569 167,34.5" id="Path" fill="#EFEFF6" fill-rule="nonzero"></path>
            <path d="M168,31.5 C168,37.299431 163.299431,42 157.5,42 C151.701636,42 147,37.299431 147,31.5 C147,25.700569 151.701636,21 157.5,21 C163.299431,21 168,25.700569 168,31.5" id="Path" fill="#FFFFFF" fill-rule="nonzero"></path>
            <path d="M158.5,22.1213798 C153.329137,22.1213798 149.12138,26.3291367 149.12138,31.5 C149.12138,36.6708633 153.329137,40.8786202 158.5,40.8786202 C163.670863,40.8786202 167.87862,36.6708633 167.87862,31.5 C167.87862,26.3291367 163.670863,22.1213798 158.5,22.1213798 M158.5,43 C152.158135,43 147,37.8408043 147,31.5 C147,25.158135 152.158135,20 158.5,20 C164.841865,20 170,25.158135 170,31.5 C170,37.8408043 164.841865,43 158.5,43" id="Shape" fill="#9ACDED" fill-rule="nonzero"></path>
            <g id="06_Backbase_B-icon_white_RGB" transform="translate(151.000000, 27.000000)">
                <mask id="mask-8" fill="white">
                    <use xlink:href="#path-7"></use>
                </mask>
                <g id="Clip-2"></g>
                <path d="M12.4494046,0.013843341 L4.36249085,0.013843341 L5.52304343,1.97502685 L5.98942237,1.97502685 L6.05726176,1.97672461 L11.4875149,1.97711641 C11.6283188,1.97711641 11.9681901,2.04450475 11.9700782,2.48357373 L11.9700782,6.54411295 C11.9681901,6.98409612 11.6283188,7.05043968 11.4875149,7.05043968 L4.64086162,7.06650318 L4.63722015,5.40255971 L10.2734191,5.40255971 L10.2734191,3.53566764 L4.51543293,3.5431117 L2.34147046,0 L0,0 L2.62361759,4.4252982 L2.62105507,8.99830223 L4.57841702,8.99830223 L4.57841702,9 L12.5755077,9 C13.4760318,9 14,8.24044461 14,6.7178077 L14,1.98364628 C14,0.677931915 13.4760318,0.013843341 12.4494046,0.013843341" id="Fill-1" fill="#67B373" mask="url(#mask-8)"></path>
            </g>
        </g>
        <path d="M491.403071,140.764706 L523.190979,55.1176471 L515.580614,55.1176471 L489.998081,126.294118 L488.300384,132 L487.949136,132 L486.25144,126.294118 L460.610365,55.1176471 L453,55.1176471 L484.787908,140.764706 L491.403071,140.764706 Z M547.895393,142 C552.773832,142 557.164427,140.901961 561.067179,138.705882 C564.96993,136.509804 568.092131,133.745098 570.433781,130.411765 C570.433781,132.019608 570.53135,133.607843 570.726488,135.176471 C570.921625,136.745098 571.253359,138.607843 571.721689,140.764706 L571.721689,140.764706 L579.039347,140.764706 C578.453935,138.686275 578.034389,136.588235 577.78071,134.470588 C577.527031,132.352941 577.400192,130.176471 577.400192,127.941176 L577.400192,127.941176 L577.400192,96.6470588 C577.400192,89.9803922 575.273193,84.8627451 571.019194,81.2941176 C566.765195,77.7254902 561.145234,75.9411765 554.159309,75.9411765 C547.134357,75.9411765 541.348528,77.8137255 536.801823,81.5588235 C532.255118,85.3039216 530.098848,89.5490196 530.333013,94.2941176 L530.333013,94.2941176 L530.450096,94.6470588 L536.889635,94.7058824 C536.889635,91.1372549 538.49952,88.1176471 541.71929,85.6470588 C544.93906,83.1764706 548.988164,81.9411765 553.866603,81.9411765 C559.096289,81.9411765 563.164907,83.2352941 566.072457,85.8235294 C568.980006,88.4117647 570.433781,91.9803922 570.433781,96.5294118 L570.433781,96.5294118 L570.433781,104.411765 L556.442418,104.411765 C547.856366,104.411765 541.036308,106.176471 535.982246,109.705882 C530.928183,113.235294 528.401152,117.941176 528.401152,123.823529 C528.401152,129.352941 530.108605,133.764706 533.523512,137.058824 C536.93842,140.352941 541.729047,142 547.895393,142 Z M548.714971,135.764706 C544.539028,135.764706 541.270473,134.676471 538.909309,132.5 C536.548145,130.323529 535.367562,127.509804 535.367562,124.058824 C535.367562,120.019608 537.270154,116.637255 541.075336,113.911765 C544.880518,111.186275 549.963852,109.823529 556.325336,109.823529 L556.325336,109.823529 L570.433781,109.823529 L570.433781,123.117647 C568.716571,126.803922 565.926104,129.833333 562.06238,132.205882 C558.198656,134.578431 553.74952,135.764706 548.714971,135.764706 Z M603.099808,140.764706 L603.099808,96.8235294 C604.309661,92.4705882 606.329335,89.0490196 609.158829,86.5588235 C611.988324,84.0686275 615.608125,82.8235294 620.018234,82.8235294 L620.018234,82.8235294 L625.228407,83.1764706 L626.165067,76.5882353 C625.618682,76.4313725 624.925944,76.2843137 624.086852,76.1470588 C623.247761,76.0098039 622.379399,75.9411765 621.481766,75.9411765 C617.227767,75.9411765 613.559181,77.0392157 610.476008,79.2352941 C607.392834,81.4313725 604.934101,84.4901961 603.099808,88.4117647 L603.099808,88.4117647 L603.099808,87.7058824 L602.221689,77.1176471 L596.074856,77.1176471 L596.074856,140.764706 L603.099808,140.764706 Z M644.722649,58.8823529 L644.722649,49 L637.756238,49 L637.756238,58.8823529 L644.722649,58.8823529 Z M644.722649,140.764706 L644.722649,77.1176471 L637.756238,77.1176471 L637.756238,140.764706 L644.722649,140.764706 Z M680.37428,142 C685.252719,142 689.643314,140.901961 693.546065,138.705882 C697.448816,136.509804 700.571017,133.745098 702.912668,130.411765 C702.912668,132.019608 703.010237,133.607843 703.205374,135.176471 C703.400512,136.745098 703.732246,138.607843 704.200576,140.764706 L704.200576,140.764706 L711.518234,140.764706 C710.932821,138.686275 710.513276,136.588235 710.259597,134.470588 C710.005918,132.352941 709.879079,130.176471 709.879079,127.941176 L709.879079,127.941176 L709.879079,96.6470588 C709.879079,89.9803922 707.752079,84.8627451 703.498081,81.2941176 C699.244082,77.7254902 693.62412,75.9411765 686.638196,75.9411765 C679.613244,75.9411765 673.827415,77.8137255 669.28071,81.5588235 C664.734005,85.3039216 662.577735,89.5490196 662.8119,94.2941176 L662.8119,94.2941176 L662.928983,94.6470588 L669.368522,94.7058824 C669.368522,91.1372549 670.978407,88.1176471 674.198177,85.6470588 C677.417946,83.1764706 681.467051,81.9411765 686.345489,81.9411765 C691.575176,81.9411765 695.643794,83.2352941 698.551344,85.8235294 C701.458893,88.4117647 702.912668,91.9803922 702.912668,96.5294118 L702.912668,96.5294118 L702.912668,104.411765 L688.921305,104.411765 C680.335253,104.411765 673.515195,106.176471 668.461132,109.705882 C663.40707,113.235294 660.880038,117.941176 660.880038,123.823529 C660.880038,129.352941 662.587492,133.764706 666.002399,137.058824 C669.417306,140.352941 674.207933,142 680.37428,142 Z M681.193858,135.764706 C677.017914,135.764706 673.74936,134.676471 671.388196,132.5 C669.027031,130.323529 667.846449,127.509804 667.846449,124.058824 C667.846449,120.019608 669.74904,116.637255 673.554223,113.911765 C677.359405,111.186275 682.442738,109.823529 688.804223,109.823529 L688.804223,109.823529 L702.912668,109.823529 L702.912668,123.117647 C701.195457,126.803922 698.40499,129.833333 694.541267,132.205882 C690.677543,134.578431 686.228407,135.764706 681.193858,135.764706 Z M735.578695,140.764706 L735.578695,96.3529412 C736.944658,92.0392157 739.178983,88.5784314 742.28167,85.9705882 C745.384357,83.3627451 749.394434,82.0588235 754.3119,82.0588235 C759.307422,82.0588235 763.161388,83.5686275 765.8738,86.5882353 C768.586212,89.6078431 769.942418,94.7647059 769.942418,102.058824 L769.942418,102.058824 L769.942418,140.764706 L776.96737,140.764706 L776.96737,102 C776.96737,93.0588235 775.172105,86.4803922 771.581574,82.2647059 C767.991043,78.0490196 762.761356,75.9411765 755.892514,75.9411765 C751.170186,75.9411765 747.082054,77.0098039 743.628119,79.1470588 C740.174184,81.2843137 737.432502,84.3137255 735.403071,88.2352941 L735.403071,88.2352941 L734.759117,77.1176471 L728.553743,77.1176471 L728.553743,140.764706 L735.578695,140.764706 Z M813.321497,142 C814.99968,142 816.677863,141.862745 818.356046,141.588235 C820.034229,141.313725 821.458733,140.921569 822.629559,140.411765 L822.629559,140.411765 L821.575816,135.176471 C820.170825,135.411765 818.931702,135.578431 817.858445,135.676471 C816.785189,135.77451 815.682662,135.823529 814.550864,135.823529 C812.053103,135.823529 810.052943,134.95098 808.550384,133.205882 C807.047825,131.460784 806.296545,128.509804 806.296545,124.352941 L806.296545,124.352941 L806.296545,82.8823529 L820.229367,82.8823529 L820.229367,77.1176471 L806.296545,77.1176471 L806.296545,60.8235294 L799.213052,60.8235294 L799.213052,77.1176471 L788.265835,77.1176471 L788.265835,82.8823529 L799.213052,82.8823529 L799.213052,124.352941 C799.213052,130.470588 800.452175,134.941176 802.930422,137.764706 C805.408669,140.588235 808.872361,142 813.321497,142 Z M856.642035,142 C863.666987,142 869.316219,140.362745 873.589731,137.088235 C877.863244,133.813725 880,129.529412 880,124.235294 C880,119.215686 878.126679,115.245098 874.380038,112.323529 C870.633397,109.401961 864.993922,107.098039 857.461612,105.411765 C850.865963,103.960784 846.465611,102.27451 844.260557,100.352941 C842.055502,98.4313725 840.952975,96 840.952975,93.0588235 C840.952975,90.0784314 842.231126,87.4803922 844.787428,85.2647059 C847.34373,83.0490196 851.178183,81.9411765 856.290787,81.9411765 C861.286308,81.9411765 865.257358,83.2352941 868.203935,85.8235294 C871.150512,88.4117647 872.6238,91.4509804 872.6238,94.9411765 L872.6238,94.9411765 L879.121881,94.9411765 L879.238964,94.5882353 C879.434101,89.254902 877.443698,84.8137255 873.267754,81.2647059 C869.091811,77.7156863 863.432821,75.9411765 856.290787,75.9411765 C849.578055,75.9411765 844.182502,77.6176471 840.104127,80.9705882 C836.025752,84.3235294 833.986564,88.4313725 833.986564,93.2941176 C833.986564,98.2352941 835.791587,102.058824 839.401631,104.764706 C843.011676,107.470588 848.602367,109.647059 856.173704,111.294118 C862.535189,112.705882 866.935541,114.529412 869.37476,116.764706 C871.81398,119 873.033589,121.607843 873.033589,124.588235 C873.033589,127.764706 871.570058,130.470588 868.642994,132.705882 C865.715931,134.941176 861.715611,136.058824 856.642035,136.058824 C851.958733,136.058824 847.890115,135.019608 844.43618,132.941176 C840.982246,130.862745 839.118682,127.529412 838.845489,122.941176 L838.845489,122.941176 L832.40595,122.941176 L832.288868,123.294118 C832.054702,128.392157 834.132917,132.784314 838.523512,136.470588 C842.914107,140.156863 848.953615,142 856.642035,142 Z" id="Variants" fill="#444444" fill-rule="nonzero"></path>
    </g>
</svg>