<?xml version="1.0" encoding="UTF-8"?>
<svg width="1119px" height="199px" viewBox="0 0 1119 199" version="1.1" xmlns="http://www.w3.org/2000/svg" xmlns:xlink="http://www.w3.org/1999/xlink">
    <!-- Generator: Sketch 61.2 (89653) - https://sketch.com -->
    <title>Artboard</title>
    <desc>Created with Sketch.</desc>
    <defs>
        <polygon id="path-1" points="0 4.96095238 0 0.199047619 24.94 0.199047619 24.94 4.96095238"></polygon>
        <polygon id="path-3" points="0 0 30 0 30 20 0 20"></polygon>
        <polygon id="path-5" points="0 0 30 0 30 20 0 20"></polygon>
        <polygon id="path-7" points="0 0 30 0 30 20 0 20"></polygon>
    </defs>
    <g id="Artboard" stroke="none" stroke-width="1" fill="none" fill-rule="evenodd">
        <g id="Products_Product-variant" transform="translate(359.000000, -3.000000)">
            <path d="M389.684211,198 L306.315789,198 C305.035158,198 304,196.8825 304,195.5 C304,194.1175 305.035158,193 306.315789,193 L389.684211,193 C390.964842,193 392,194.1175 392,195.5 C392,196.8825 390.964842,198 389.684211,198" id="Path" fill="#375D81" fill-rule="nonzero"></path>
            <path d="M191.687393,192 L36.3126066,192 C35.0360478,192 34,190.8825 34,189.5 C34,188.1175 35.0360478,187 36.3126066,187 L191.687393,187 C192.966265,187 194,188.1175 194,189.5 C194,190.8825 192.966265,192 191.687393,192" id="Path" fill="#375D81" fill-rule="nonzero"></path>
            <line x1="211" y1="189.5" x2="231" y2="189.5" id="Path" fill="#FFFFFF" fill-rule="nonzero"></line>
            <path d="M229.756036,192 L209.243964,192 C208.005296,192 207,190.8825 207,189.5 C207,188.1175 208.005296,187 209.243964,187 L229.756036,187 C230.996948,187 232,188.1175 232,189.5 C232,190.8825 230.996948,192 229.756036,192" id="Path" fill="#375D81" fill-rule="nonzero"></path>
            <line x1="18" y1="189.3875" x2="4" y2="189.6125" id="Path" fill="#FFFFFF" fill-rule="nonzero"></line>
            <path d="M7.28588921,192 C6.03792741,192 5.02081569,190.946988 5.00024489,189.626506 C4.98195974,188.296386 5.98992888,187.20241 7.25160455,187.180723 L18.6798261,187 L18.7141108,187 C19.9620726,187 20.9791843,188.053012 20.9997551,189.373494 C21.0180403,190.703614 20.0100711,191.79759 18.7483955,191.819277 L7.32017387,192 L7.28588921,192 Z" id="Path" fill="#375D81" fill-rule="nonzero"></path>
            <line x1="268" y1="167.5" x2="369" y2="167.5" id="Path" fill="#FFFFFF" fill-rule="nonzero"></line>
            <line x1="385" y1="167.5" x2="401" y2="167.5" id="Path" fill="#FFFFFF" fill-rule="nonzero"></line>
            <g id="Group" transform="translate(265.000000, 193.000000)">
                <g id="Clipped">
                    <mask id="mask-2" fill="white">
                        <use xlink:href="#path-1"></use>
                    </mask>
                    <g id="a"></g>
                    <path d="M22.6672727,4.96095238 L2.27181818,4.96095238 C1.01727273,4.96095238 -0.000909090909,3.89666667 -0.000909090909,2.58 C-0.000909090909,1.26333333 1.01727273,0.199047619 2.27181818,0.199047619 L22.6672727,0.199047619 C23.9240909,0.199047619 24.94,1.26333333 24.94,2.58 C24.94,3.89666667 23.9240909,4.96095238 22.6672727,4.96095238" id="Path" fill="#375D81" fill-rule="nonzero" mask="url(#mask-2)"></path>
                </g>
            </g>
            <path d="M104.792597,167 L8.20740261,167 C5.33005288,167 3,164.676115 3,161.811524 L3,31.188476 C3,28.3238851 5.33005288,26 8.20740261,26 L104.792597,26 C107.669947,26 110,28.3238851 110,31.188476 L110,161.811524 C110,164.676115 107.669947,167 104.792597,167" id="Path" fill="#FFFFFF" fill-rule="nonzero"></path>
            <polyline id="Path" fill="#EFEFF6" fill-rule="nonzero" points="99.0027009 151.30644 13 157 13 40.7954607 100 37"></polyline>
            <path d="M7.54236061,27.6143392 C5.93888487,27.6143392 4.63432295,28.9109685 4.63432295,30.5098371 L4.63432295,161.490163 C4.63432295,163.089031 5.93888487,164.385661 7.54236061,164.385661 L104.457639,164.385661 C106.063432,164.385661 107.365677,163.089031 107.365677,161.490163 L107.365677,30.5098371 C107.365677,28.9109685 106.063432,27.6143392 104.457639,27.6143392 L7.54236061,27.6143392 Z M104.457639,169 L7.54236061,169 C3.38305576,169 0,165.631532 0,161.490163 L0,30.5098371 C0,26.3684676 3.38305576,23 7.54236061,23 L104.457639,23 C108.616944,23 112,26.3684676 112,30.5098371 L112,161.490163 C112,165.631532 108.616944,169 104.457639,169 Z" id="Shape" fill="#375D81" fill-rule="nonzero"></path>
            <line x1="24" y1="112.5" x2="90" y2="112.5" id="Path" fill="#FFFFFF" fill-rule="nonzero"></line>
            <path d="M88.6333333,113 L22.3666667,113 C21.0579,113 20,111.8825 20,110.5 C20,109.1175 21.0579,108 22.3666667,108 L88.6333333,108 C89.9421,108 91,109.1175 91,110.5 C91,111.8825 89.9421,113 88.6333333,113" id="Path" fill="#9ACDED" fill-rule="nonzero"></path>
            <line x1="24" y1="124.5" x2="90" y2="124.5" id="Path" fill="#FFFFFF" fill-rule="nonzero"></line>
            <path d="M88.6333333,128 L22.3666667,128 C21.0579,128 20,126.8825 20,125.5 C20,124.1175 21.0579,123 22.3666667,123 L88.6333333,123 C89.9421,123 91,124.1175 91,125.5 C91,126.8825 89.9421,128 88.6333333,128" id="Path" fill="#9ACDED" fill-rule="nonzero"></path>
            <line x1="24" y1="140.5" x2="90" y2="140.5" id="Path" fill="#FFFFFF" fill-rule="nonzero"></line>
            <path d="M88.6333333,141 L22.3666667,141 C21.0579,141 20,139.8825 20,138.5 C20,137.1175 21.0579,136 22.3666667,136 L88.6333333,136 C89.9421,136 91,137.1175 91,138.5 C91,139.8825 89.9421,141 88.6333333,141" id="Path" fill="#9ACDED" fill-rule="nonzero"></path>
            <path d="M241.792597,167 L145.207403,167 C142.330053,167 140,164.676115 140,161.811524 L140,31.188476 C140,28.3238851 142.330053,26 145.207403,26 L241.792597,26 C244.667638,26 247,28.3238851 247,31.188476 L247,161.811524 C247,164.676115 244.667638,167 241.792597,167" id="Path" fill="#FFFFFF" fill-rule="nonzero"></path>
            <path d="M145.542361,27.6143392 C143.938885,27.6143392 142.634323,28.9109685 142.634323,30.5098371 L142.634323,161.490163 C142.634323,163.089031 143.938885,164.385661 145.542361,164.385661 L242.457639,164.385661 C244.063432,164.385661 245.365677,163.089031 245.365677,161.490163 L245.365677,30.5098371 C245.365677,28.9109685 244.063432,27.6143392 242.457639,27.6143392 L145.542361,27.6143392 Z M242.457639,169 L145.542361,169 C141.383056,169 138,165.631532 138,161.490163 L138,30.5098371 C138,26.3684676 141.383056,23 145.542361,23 L242.457639,23 C246.616944,23 250,26.3684676 250,30.5098371 L250,161.490163 C250,165.631532 246.616944,169 242.457639,169 Z" id="Shape" fill="#375D81" fill-rule="nonzero"></path>
            <polyline id="Path" fill="#EFEFF6" fill-rule="nonzero" points="235.002701 154.30644 149 160 149 43.7954607 236 40"></polyline>
            <line x1="161" y1="112.5" x2="227" y2="112.5" id="Path" fill="#FFFFFF" fill-rule="nonzero"></line>
            <path d="M227.633333,113 L161.366667,113 C160.0579,113 159,111.8825 159,110.5 C159,109.1175 160.0579,108 161.366667,108 L227.633333,108 C228.9421,108 230,109.1175 230,110.5 C230,111.8825 228.9421,113 227.633333,113" id="Path" fill="#9ACDED" fill-rule="nonzero"></path>
            <line x1="161" y1="124.5" x2="227" y2="124.5" id="Path" fill="#FFFFFF" fill-rule="nonzero"></line>
            <path d="M227.633333,128 L161.366667,128 C160.0579,128 159,126.8825 159,125.5 C159,124.1175 160.0579,123 161.366667,123 L227.633333,123 C228.9421,123 230,124.1175 230,125.5 C230,126.8825 228.9421,128 227.633333,128" id="Path" fill="#9ACDED" fill-rule="nonzero"></path>
            <line x1="161" y1="140.5" x2="227" y2="140.5" id="Path" fill="#FFFFFF" fill-rule="nonzero"></line>
            <path d="M227.633333,141 L161.366667,141 C160.0579,141 159,139.8825 159,138.5 C159,137.1175 160.0579,136 161.366667,136 L227.633333,136 C228.9421,136 230,137.1175 230,138.5 C230,139.8825 228.9421,141 227.633333,141" id="Path" fill="#9ACDED" fill-rule="nonzero"></path>
            <path d="M379.79271,167 L283.20729,167 C280.332312,167 278,164.676115 278,161.811524 L278,31.188476 C278,28.3238851 280.332312,26 283.20729,26 L379.79271,26 C382.667688,26 385,28.3238851 385,31.188476 L385,161.811524 C385,164.676115 382.667688,167 379.79271,167" id="Path" fill="#FFFFFF" fill-rule="nonzero"></path>
            <path d="M283.542205,27.6143392 C281.938762,27.6143392 280.634227,28.9109685 280.634227,30.5098371 L280.634227,161.490163 C280.634227,163.089031 281.938762,164.385661 283.542205,164.385661 L380.457795,164.385661 C382.063555,164.385661 383.365773,163.089031 383.365773,161.490163 L383.365773,30.5098371 C383.365773,28.9109685 382.063555,27.6143392 380.457795,27.6143392 L283.542205,27.6143392 Z M380.457795,169 L283.542205,169 C279.382986,169 276,165.631532 276,161.490163 L276,30.5098371 C276,26.3684676 279.382986,23 283.542205,23 L380.457795,23 C384.617014,23 388,26.3684676 388,30.5098371 L388,161.490163 C388,165.631532 384.617014,169 380.457795,169 Z" id="Shape" fill="#375D81" fill-rule="nonzero"></path>
            <polyline id="Path" fill="#EFEFF6" fill-rule="nonzero" points="377.002701 148.30644 291 154 291 37.7954607 378 34"></polyline>
            <line x1="300" y1="112.5" x2="366" y2="112.5" id="Path" fill="#FFFFFF" fill-rule="nonzero"></line>
            <path d="M364.633333,113 L298.366667,113 C297.0579,113 296,111.8825 296,110.5 C296,109.1175 297.0579,108 298.366667,108 L364.633333,108 C365.9421,108 367,109.1175 367,110.5 C367,111.8825 365.9421,113 364.633333,113" id="Path" fill="#9ACDED" fill-rule="nonzero"></path>
            <line x1="300" y1="124.5" x2="366" y2="124.5" id="Path" fill="#FFFFFF" fill-rule="nonzero"></line>
            <path d="M364.633333,128 L298.366667,128 C297.0579,128 296,126.8825 296,125.5 C296,124.1175 297.0579,123 298.366667,123 L364.633333,123 C365.9421,123 367,124.1175 367,125.5 C367,126.8825 365.9421,128 364.633333,128" id="Path" fill="#9ACDED" fill-rule="nonzero"></path>
            <line x1="300" y1="140.5" x2="366" y2="140.5" id="Path" fill="#FFFFFF" fill-rule="nonzero"></line>
            <path d="M364.633333,141 L298.366667,141 C297.0579,141 296,139.8825 296,138.5 C296,137.1175 297.0579,136 298.366667,136 L364.633333,136 C365.9421,136 367,137.1175 367,138.5 C367,139.8825 365.9421,141 364.633333,141" id="Path" fill="#9ACDED" fill-rule="nonzero"></path>
            <path d="M73,73 C73,85.1511888 63.1511888,95 51,95 C38.8510465,95 29,85.1511888 29,73 C29,60.8488112 38.8510465,51 51,51 C63.1511888,51 73,60.8488112 73,73" id="Path" fill="#EFEFF6" fill-rule="nonzero"></path>
            <path d="M79,65 C79,77.1511888 69.1511888,87 57,87 C44.8510465,87 35,77.1511888 35,65 C35,52.8488112 44.8510465,43 57,43 C69.1511888,43 79,52.8488112 79,65" id="Path" fill="#FFFFFF" fill-rule="nonzero"></path>
            <path d="M57.5,47.5194614 C46.4838129,47.5194614 37.5194614,56.4838129 37.5194614,67.5 C37.5194614,78.5161871 46.4838129,87.4805386 57.5,87.4805386 C68.5161871,87.4805386 77.4805386,78.5161871 77.4805386,67.5 C77.4805386,56.4838129 68.5161871,47.5194614 57.5,47.5194614 M57.5,92 C43.9890703,92 33,81.00867 33,67.5 C33,53.9890703 43.9890703,43 57.5,43 C71.0109297,43 82,53.9890703 82,67.5 C82,81.00867 71.0109297,92 57.5,92" id="Shape" fill="#9ACDED" fill-rule="nonzero"></path>
            <g id="06_Backbase_B-icon_white_RGB" transform="translate(39.000000, 57.000000)">
                <mask id="mask-4" fill="white">
                    <use xlink:href="#path-3"></use>
                </mask>
                <g id="Clip-2"></g>
                <path d="M26.6772957,0.0307629799 L9.34819467,0.0307629799 L11.8350931,4.38894854 L12.8344765,4.38894854 L12.9798466,4.39272136 L24.6161034,4.39359201 C24.9178259,4.39359201 25.6461215,4.54334388 25.6501676,5.51905273 L25.6501676,14.5424732 C25.6461215,15.5202136 24.9178259,15.6676437 24.6161034,15.6676437 L9.94470348,15.7033404 L9.93690031,12.0056882 L22.0144696,12.0056882 L22.0144696,7.85703921 L9.67592771,7.87358157 L5.01743671,0 L0,0 L5.62203769,9.833996 L5.61654657,19.9962272 L9.81089361,19.9962272 L9.81089361,20 L26.9475165,20 C28.8772109,20 30,18.3120991 30,14.9284616 L30,4.40810285 C30,1.50651537 28.8772109,0.0307629799 26.6772957,0.0307629799" id="Fill-1" fill="#D4604F" mask="url(#mask-4)"></path>
            </g>
            <path d="M214,73 C214,85.1511888 204.151189,95 192,95 C179.851047,95 170,85.1511888 170,73 C170,60.8488112 179.851047,51 192,51 C204.151189,51 214,60.8488112 214,73" id="Path" fill="#EFEFF6" fill-rule="nonzero"></path>
            <path d="M218,65 C218,77.1511888 208.151189,87 196,87 C183.851047,87 174,77.1511888 174,65 C174,52.8488112 183.851047,43 196,43 C208.151189,43 218,52.8488112 218,65" id="Path" fill="#FFFFFF" fill-rule="nonzero"></path>
            <path d="M196.5,47.5194614 C185.483813,47.5194614 176.519461,56.4838129 176.519461,67.5 C176.519461,78.5161871 185.483813,87.4805386 196.5,87.4805386 C207.516187,87.4805386 216.480539,78.5161871 216.480539,67.5 C216.480539,56.4838129 207.516187,47.5194614 196.5,47.5194614 M196.5,92 C182.98907,92 172,81.00867 172,67.5 C172,53.9890703 182.98907,43 196.5,43 C210.01093,43 221,53.9890703 221,67.5 C221,81.00867 210.01093,92 196.5,92" id="Shape" fill="#9ACDED" fill-rule="nonzero"></path>
            <g id="06_Backbase_B-icon_white_RGB" transform="translate(179.000000, 57.000000)">
                <mask id="mask-6" fill="white">
                    <use xlink:href="#path-5"></use>
                </mask>
                <g id="Clip-2"></g>
                <path d="M26.6772957,0.0307629799 L9.34819467,0.0307629799 L11.8350931,4.38894854 L12.8344765,4.38894854 L12.9798466,4.39272136 L24.6161034,4.39359201 C24.9178259,4.39359201 25.6461215,4.54334388 25.6501676,5.51905273 L25.6501676,14.5424732 C25.6461215,15.5202136 24.9178259,15.6676437 24.6161034,15.6676437 L9.94470348,15.7033404 L9.93690031,12.0056882 L22.0144696,12.0056882 L22.0144696,7.85703921 L9.67592771,7.87358157 L5.01743671,0 L0,0 L5.62203769,9.833996 L5.61654657,19.9962272 L9.81089361,19.9962272 L9.81089361,20 L26.9475165,20 C28.8772109,20 30,18.3120991 30,14.9284616 L30,4.40810285 C30,1.50651537 28.8772109,0.0307629799 26.6772957,0.0307629799" id="Fill-1" fill="#F9B53F" mask="url(#mask-6)"></path>
            </g>
            <path d="M353,73 C353,85.1511888 343.149454,95 330.998882,95 C318.852781,95 309,85.1511888 309,73 C309,60.8488112 318.852781,51 330.998882,51 C343.149454,51 353,60.8488112 353,73" id="Path" fill="#EFEFF6" fill-rule="nonzero"></path>
            <path d="M358,65 C358,77.1511888 348.151189,87 336,87 C323.851047,87 314,77.1511888 314,65 C314,52.8488112 323.851047,43 336,43 C348.151189,43 358,52.8488112 358,65" id="Path" fill="#FFFFFF" fill-rule="nonzero"></path>
            <path d="M334.5,47.5194614 C323.483813,47.5194614 314.519461,56.4838129 314.519461,67.5 C314.519461,78.5161871 323.483813,87.4805386 334.5,87.4805386 C345.516187,87.4805386 354.480539,78.5161871 354.480539,67.5 C354.480539,56.4838129 345.516187,47.5194614 334.5,47.5194614 M334.5,92 C320.98907,92 310,81.00867 310,67.5 C310,53.9890703 320.98907,43 334.5,43 C348.01093,43 359,53.9890703 359,67.5 C359,81.00867 348.01093,92 334.5,92" id="Shape" fill="#9ACDED" fill-rule="nonzero"></path>
            <g id="06_Backbase_B-icon_white_RGB" transform="translate(320.000000, 57.000000)">
                <mask id="mask-8" fill="white">
                    <use xlink:href="#path-7"></use>
                </mask>
                <g id="Clip-2"></g>
                <path d="M26.6772957,0.0307629799 L9.34819467,0.0307629799 L11.8350931,4.38894854 L12.8344765,4.38894854 L12.9798466,4.39272136 L24.6161034,4.39359201 C24.9178259,4.39359201 25.6461215,4.54334388 25.6501676,5.51905273 L25.6501676,14.5424732 C25.6461215,15.5202136 24.9178259,15.6676437 24.6161034,15.6676437 L9.94470348,15.7033404 L9.93690031,12.0056882 L22.0144696,12.0056882 L22.0144696,7.85703921 L9.67592771,7.87358157 L5.01743671,0 L0,0 L5.62203769,9.833996 L5.61654657,19.9962272 L9.81089361,19.9962272 L9.81089361,20 L26.9475165,20 C28.8772109,20 30,18.3120991 30,14.9284616 L30,4.40810285 C30,1.50651537 28.8772109,0.0307629799 26.6772957,0.0307629799" id="Fill-1" fill="#67B373" mask="url(#mask-8)"></path>
            </g>
        </g>
    </g>
</svg>