<?xml version="1.0" encoding="UTF-8"?>
<svg width="389px" height="240px" viewBox="0 0 389 240" version="1.1" xmlns="http://www.w3.org/2000/svg" xmlns:xlink="http://www.w3.org/1999/xlink">
    <!-- Generator: Sketch 61.2 (89653) - https://sketch.com -->
    <title>Artboard</title>
    <desc>Created with Sketch.</desc>
    <g id="Artboard" stroke="none" stroke-width="1" fill="none" fill-rule="evenodd">
        <g id="Group-2" transform="translate(60.000000, 36.000000)">
            <g id="Group">
                <g id="Group-4" transform="translate(135.000000, 90.000000) scale(-1, 1) translate(-135.000000, -90.000000) ">
                    <polygon id="Polygon" fill="#ECF7FF" points="180 0 250.364833 33.8859178 267.743512 110.026884 219.049537 171.087198 140.950463 171.087198 92.2564879 110.026884 109.635167 33.8859178"></polygon>
                    <polygon id="Polygon" fill="#93C7EA" points="153 0 223.364833 33.8859178 240.743512 110.026884 192.049537 171.087198 113.950463 171.087198 65.2564879 110.026884 82.6351666 33.8859178"></polygon>
                    <polygon id="Polygon" fill="#F9B53F" points="121 0 191.364833 33.8859178 208.743512 110.026884 160.049537 171.087198 81.9504635 171.087198 33.2564879 110.026884 50.6351666 33.8859178"></polygon>
                    <polygon id="Polygon" fill="#F9B53F" points="121 0 191.364833 33.8859178 208.743512 110.026884 160.049537 171.087198 81.9504635 171.087198 33.2564879 110.026884 50.6351666 33.8859178"></polygon>
                    <polygon id="Polygon" fill="#2E6DBA" points="90 0 160.364833 33.8859178 177.743512 110.026884 129.049537 171.087198 50.9504635 171.087198 2.2564879 110.026884 19.6351666 33.8859178"></polygon>
                </g>
                <polygon id="V" fill="#FFFFFF" fill-rule="nonzero" points="187.769531 125.09375 211.939453 54 196.900391 54 181.421875 106.294922 180.591797 110.054688 180.298828 110.054688 179.419922 106.197266 164.039062 54 149 54 173.121094 125.09375"></polygon>
            </g>
        </g>
    </g>
</svg>